TITLE ""
FILE "TOEIC LR Kinnojyukugo_07.mp3" MP3
  TRACK 01 AUDIO
    TITLE "TOEIC LR Kinnojyukugo_07_0001"
    INDEX 01 00:00:00
  TRACK 02 AUDIO
    TITLE "TOEIC LR Kinnojyukugo_07_0002"
    INDEX 01 00:00:12
  TRACK 03 AUDIO
    TITLE "TOEIC LR Kinnojyukugo_07_0003"
    INDEX 01 00:01:35
  TRACK 04 AUDIO
    TITLE "TOEIC LR Kinnojyukugo_07_0004"
    INDEX 01 00:01:74
  TRACK 05 AUDIO
    TITLE "TOEIC LR Kinnojyukugo_07_0005"
    INDEX 01 00:03:18
  TRACK 06 AUDIO
    TITLE "TOEIC LR Kinnojyukugo_07_0006"
    INDEX 01 00:03:58
  TRACK 07 AUDIO
    TITLE "TOEIC LR Kinnojyukugo_07_0007"
    INDEX 01 00:05:43
  TRACK 08 AUDIO
    TITLE "TOEIC LR Kinnojyukugo_07_0008"
    INDEX 01 00:06:05
  TRACK 09 AUDIO
    TITLE "TOEIC LR Kinnojyukugo_07_0009"
    INDEX 01 00:08:02
  TRACK 10 AUDIO
    TITLE "TOEIC LR Kinnojyukugo_07_0010"
    INDEX 01 00:08:27
  TRACK 11 AUDIO
    TITLE "TOEIC LR Kinnojyukugo_07_0011"
    INDEX 01 00:10:26
  TRACK 12 AUDIO
    TITLE "TOEIC LR Kinnojyukugo_07_0012"
    INDEX 01 00:11:26
  TRACK 13 AUDIO
    TITLE "TOEIC LR Kinnojyukugo_07_0013"
    INDEX 01 00:12:47
  TRACK 14 AUDIO
    TITLE "TOEIC LR Kinnojyukugo_07_0014"
    INDEX 01 00:13:11
  TRACK 15 AUDIO
    TITLE "TOEIC LR Kinnojyukugo_07_0015"
    INDEX 01 00:14:36
  TRACK 16 AUDIO
    TITLE "TOEIC LR Kinnojyukugo_07_0016"
    INDEX 01 00:15:02
  TRACK 17 AUDIO
    TITLE "TOEIC LR Kinnojyukugo_07_0017"
    INDEX 01 00:17:54
  TRACK 18 AUDIO
    TITLE "TOEIC LR Kinnojyukugo_07_0018"
    INDEX 01 00:18:20
  TRACK 19 AUDIO
    TITLE "TOEIC LR Kinnojyukugo_07_0019"
    INDEX 01 00:20:48
  TRACK 20 AUDIO
    TITLE "TOEIC LR Kinnojyukugo_07_0020"
    INDEX 01 00:20:72
  TRACK 21 AUDIO
    TITLE "TOEIC LR Kinnojyukugo_07_0021"
    INDEX 01 00:23:25
  TRACK 22 AUDIO
    TITLE "TOEIC LR Kinnojyukugo_07_0022"
    INDEX 01 00:24:25
  TRACK 23 AUDIO
    TITLE "TOEIC LR Kinnojyukugo_07_0023"
    INDEX 01 00:25:42
  TRACK 24 AUDIO
    TITLE "TOEIC LR Kinnojyukugo_07_0024"
    INDEX 01 00:26:04
  TRACK 25 AUDIO
    TITLE "TOEIC LR Kinnojyukugo_07_0025"
    INDEX 01 00:28:44
  TRACK 26 AUDIO
    TITLE "TOEIC LR Kinnojyukugo_07_0026"
    INDEX 01 00:29:08
  TRACK 27 AUDIO
    TITLE "TOEIC LR Kinnojyukugo_07_0027"
    INDEX 01 00:33:08
  TRACK 28 AUDIO
    TITLE "TOEIC LR Kinnojyukugo_07_0028"
    INDEX 01 00:33:51
  TRACK 29 AUDIO
    TITLE "TOEIC LR Kinnojyukugo_07_0029"
    INDEX 01 00:36:34
  TRACK 30 AUDIO
    TITLE "TOEIC LR Kinnojyukugo_07_0030"
    INDEX 01 00:36:61
  TRACK 31 AUDIO
    TITLE "TOEIC LR Kinnojyukugo_07_0031"
    INDEX 01 00:39:44
  TRACK 32 AUDIO
    TITLE "TOEIC LR Kinnojyukugo_07_0032"
    INDEX 01 00:40:45
  TRACK 33 AUDIO
    TITLE "TOEIC LR Kinnojyukugo_07_0033"
    INDEX 01 00:41:56
  TRACK 34 AUDIO
    TITLE "TOEIC LR Kinnojyukugo_07_0034"
    INDEX 01 00:42:20
  TRACK 35 AUDIO
    TITLE "TOEIC LR Kinnojyukugo_07_0035"
    INDEX 01 00:43:36
  TRACK 36 AUDIO
    TITLE "TOEIC LR Kinnojyukugo_07_0036"
    INDEX 01 00:43:75
  TRACK 37 AUDIO
    TITLE "TOEIC LR Kinnojyukugo_07_0037"
    INDEX 01 00:46:08
  TRACK 38 AUDIO
    TITLE "TOEIC LR Kinnojyukugo_07_0038"
    INDEX 01 00:46:50
  TRACK 39 AUDIO
    TITLE "TOEIC LR Kinnojyukugo_07_0039"
    INDEX 01 00:48:21
  TRACK 40 AUDIO
    TITLE "TOEIC LR Kinnojyukugo_07_0040"
    INDEX 01 00:48:49
  TRACK 41 AUDIO
    TITLE "TOEIC LR Kinnojyukugo_07_0041"
    INDEX 01 00:50:22
  TRACK 42 AUDIO
    TITLE "TOEIC LR Kinnojyukugo_07_0042"
    INDEX 01 00:51:21
  TRACK 43 AUDIO
    TITLE "TOEIC LR Kinnojyukugo_07_0043"
    INDEX 01 00:52:36
  TRACK 44 AUDIO
    TITLE "TOEIC LR Kinnojyukugo_07_0044"
    INDEX 01 00:53:01
  TRACK 45 AUDIO
    TITLE "TOEIC LR Kinnojyukugo_07_0045"
    INDEX 01 00:54:08
  TRACK 46 AUDIO
    TITLE "TOEIC LR Kinnojyukugo_07_0046"
    INDEX 01 00:54:45
  TRACK 47 AUDIO
    TITLE "TOEIC LR Kinnojyukugo_07_0047"
    INDEX 01 00:56:38
  TRACK 48 AUDIO
    TITLE "TOEIC LR Kinnojyukugo_07_0048"
    INDEX 01 00:57:02
  TRACK 49 AUDIO
    TITLE "TOEIC LR Kinnojyukugo_07_0049"
    INDEX 01 00:58:74
  TRACK 50 AUDIO
    TITLE "TOEIC LR Kinnojyukugo_07_0050"
    INDEX 01 00:59:25
  TRACK 51 AUDIO
    TITLE "TOEIC LR Kinnojyukugo_07_0051"
    INDEX 01 01:01:22
  TRACK 52 AUDIO
    TITLE "TOEIC LR Kinnojyukugo_07_0052"
    INDEX 01 01:02:23
  TRACK 53 AUDIO
    TITLE "TOEIC LR Kinnojyukugo_07_0053"
    INDEX 01 01:03:64
  TRACK 54 AUDIO
    TITLE "TOEIC LR Kinnojyukugo_07_0054"
    INDEX 01 01:04:26
  TRACK 55 AUDIO
    TITLE "TOEIC LR Kinnojyukugo_07_0055"
    INDEX 01 01:05:37
  TRACK 56 AUDIO
    TITLE "TOEIC LR Kinnojyukugo_07_0056"
    INDEX 01 01:06:03
  TRACK 57 AUDIO
    TITLE "TOEIC LR Kinnojyukugo_07_0057"
    INDEX 01 01:08:02
  TRACK 58 AUDIO
    TITLE "TOEIC LR Kinnojyukugo_07_0058"
    INDEX 01 01:08:39
  TRACK 59 AUDIO
    TITLE "TOEIC LR Kinnojyukugo_07_0059"
    INDEX 01 01:10:44
  TRACK 60 AUDIO
    TITLE "TOEIC LR Kinnojyukugo_07_0060"
    INDEX 01 01:10:70
  TRACK 61 AUDIO
    TITLE "TOEIC LR Kinnojyukugo_07_0061"
    INDEX 01 01:12:74
  TRACK 62 AUDIO
    TITLE "TOEIC LR Kinnojyukugo_07_0062"
    INDEX 01 01:14:01
  TRACK 63 AUDIO
    TITLE "TOEIC LR Kinnojyukugo_07_0063"
    INDEX 01 01:15:24
  TRACK 64 AUDIO
    TITLE "TOEIC LR Kinnojyukugo_07_0064"
    INDEX 01 01:15:73
  TRACK 65 AUDIO
    TITLE "TOEIC LR Kinnojyukugo_07_0065"
    INDEX 01 01:17:07
  TRACK 66 AUDIO
    TITLE "TOEIC LR Kinnojyukugo_07_0066"
    INDEX 01 01:17:48
  TRACK 67 AUDIO
    TITLE "TOEIC LR Kinnojyukugo_07_0067"
    INDEX 01 01:20:21
  TRACK 68 AUDIO
    TITLE "TOEIC LR Kinnojyukugo_07_0068"
    INDEX 01 01:20:60
  TRACK 69 AUDIO
    TITLE "TOEIC LR Kinnojyukugo_07_0069"
    INDEX 01 01:23:27
  TRACK 70 AUDIO
    TITLE "TOEIC LR Kinnojyukugo_07_0070"
    INDEX 01 01:23:53
  TRACK 71 AUDIO
    TITLE "TOEIC LR Kinnojyukugo_07_0071"
    INDEX 01 01:26:20
  TRACK 72 AUDIO
    TITLE "TOEIC LR Kinnojyukugo_07_0072"
    INDEX 01 01:27:21
  TRACK 73 AUDIO
    TITLE "TOEIC LR Kinnojyukugo_07_0073"
    INDEX 01 01:28:38
  TRACK 74 AUDIO
    TITLE "TOEIC LR Kinnojyukugo_07_0074"
    INDEX 01 01:29:02
  TRACK 75 AUDIO
    TITLE "TOEIC LR Kinnojyukugo_07_0075"
    INDEX 01 01:30:55
  TRACK 76 AUDIO
    TITLE "TOEIC LR Kinnojyukugo_07_0076"
    INDEX 01 01:31:17
  TRACK 77 AUDIO
    TITLE "TOEIC LR Kinnojyukugo_07_0077"
    INDEX 01 01:33:49
  TRACK 78 AUDIO
    TITLE "TOEIC LR Kinnojyukugo_07_0078"
    INDEX 01 01:34:15
  TRACK 79 AUDIO
    TITLE "TOEIC LR Kinnojyukugo_07_0079"
    INDEX 01 01:36:22
  TRACK 80 AUDIO
    TITLE "TOEIC LR Kinnojyukugo_07_0080"
    INDEX 01 01:36:48
  TRACK 81 AUDIO
    TITLE "TOEIC LR Kinnojyukugo_07_0081"
    INDEX 01 01:38:54
  TRACK 82 AUDIO
    TITLE "TOEIC LR Kinnojyukugo_07_0082"
    INDEX 01 01:39:56
  TRACK 83 AUDIO
    TITLE "TOEIC LR Kinnojyukugo_07_0083"
    INDEX 01 01:41:17
  TRACK 84 AUDIO
    TITLE "TOEIC LR Kinnojyukugo_07_0084"
    INDEX 01 01:41:55
  TRACK 85 AUDIO
    TITLE "TOEIC LR Kinnojyukugo_07_0085"
    INDEX 01 01:43:12
  TRACK 86 AUDIO
    TITLE "TOEIC LR Kinnojyukugo_07_0086"
    INDEX 01 01:43:48
  TRACK 87 AUDIO
    TITLE "TOEIC LR Kinnojyukugo_07_0087"
    INDEX 01 01:46:11
  TRACK 88 AUDIO
    TITLE "TOEIC LR Kinnojyukugo_07_0088"
    INDEX 01 01:46:48
  TRACK 89 AUDIO
    TITLE "TOEIC LR Kinnojyukugo_07_0089"
    INDEX 01 01:48:70
  TRACK 90 AUDIO
    TITLE "TOEIC LR Kinnojyukugo_07_0090"
    INDEX 01 01:49:23
  TRACK 91 AUDIO
    TITLE "TOEIC LR Kinnojyukugo_07_0091"
    INDEX 01 01:51:45
  TRACK 92 AUDIO
    TITLE "TOEIC LR Kinnojyukugo_07_0092"
    INDEX 01 01:52:49
  TRACK 93 AUDIO
    TITLE "TOEIC LR Kinnojyukugo_07_0093"
    INDEX 01 01:54:10
  TRACK 94 AUDIO
    TITLE "TOEIC LR Kinnojyukugo_07_0094"
    INDEX 01 01:54:51
  TRACK 95 AUDIO
    TITLE "TOEIC LR Kinnojyukugo_07_0095"
    INDEX 01 01:56:72
  TRACK 96 AUDIO
    TITLE "TOEIC LR Kinnojyukugo_07_0096"
    INDEX 01 01:57:36
  TRACK 97 AUDIO
    TITLE "TOEIC LR Kinnojyukugo_07_0097"
    INDEX 01 01:59:56
  TRACK 98 AUDIO
    TITLE "TOEIC LR Kinnojyukugo_07_0098"
    INDEX 01 02:00:23
  TRACK 99 AUDIO
    TITLE "TOEIC LR Kinnojyukugo_07_0099"
    INDEX 01 02:02:18
  TRACK 100 AUDIO
    TITLE "TOEIC LR Kinnojyukugo_07_0100"
    INDEX 01 02:02:45
  TRACK 101 AUDIO
    TITLE "TOEIC LR Kinnojyukugo_07_0101"
    INDEX 01 02:04:44
  TRACK 102 AUDIO
    TITLE "TOEIC LR Kinnojyukugo_07_0102"
    INDEX 01 02:05:47
  TRACK 103 AUDIO
    TITLE "TOEIC LR Kinnojyukugo_07_0103"
    INDEX 01 02:06:62
  TRACK 104 AUDIO
    TITLE "TOEIC LR Kinnojyukugo_07_0104"
    INDEX 01 02:07:32
  TRACK 105 AUDIO
    TITLE "TOEIC LR Kinnojyukugo_07_0105"
    INDEX 01 02:08:46
  TRACK 106 AUDIO
    TITLE "TOEIC LR Kinnojyukugo_07_0106"
    INDEX 01 02:09:06
  TRACK 107 AUDIO
    TITLE "TOEIC LR Kinnojyukugo_07_0107"
    INDEX 01 02:10:72
  TRACK 108 AUDIO
    TITLE "TOEIC LR Kinnojyukugo_07_0108"
    INDEX 01 02:11:32
  TRACK 109 AUDIO
    TITLE "TOEIC LR Kinnojyukugo_07_0109"
    INDEX 01 02:13:47
  TRACK 110 AUDIO
    TITLE "TOEIC LR Kinnojyukugo_07_0110"
    INDEX 01 02:13:68
  TRACK 111 AUDIO
    TITLE "TOEIC LR Kinnojyukugo_07_0111"
    INDEX 01 02:16:10
  TRACK 112 AUDIO
    TITLE "TOEIC LR Kinnojyukugo_07_0112"
    INDEX 01 02:17:11
  TRACK 113 AUDIO
    TITLE "TOEIC LR Kinnojyukugo_07_0113"
    INDEX 01 02:18:19
  TRACK 114 AUDIO
    TITLE "TOEIC LR Kinnojyukugo_07_0114"
    INDEX 01 02:18:58
  TRACK 115 AUDIO
    TITLE "TOEIC LR Kinnojyukugo_07_0115"
    INDEX 01 02:21:15
  TRACK 116 AUDIO
    TITLE "TOEIC LR Kinnojyukugo_07_0116"
    INDEX 01 02:21:52
  TRACK 117 AUDIO
    TITLE "TOEIC LR Kinnojyukugo_07_0117"
    INDEX 01 02:23:20
  TRACK 118 AUDIO
    TITLE "TOEIC LR Kinnojyukugo_07_0118"
    INDEX 01 02:23:61
  TRACK 119 AUDIO
    TITLE "TOEIC LR Kinnojyukugo_07_0119"
    INDEX 01 02:25:32
  TRACK 120 AUDIO
    TITLE "TOEIC LR Kinnojyukugo_07_0120"
    INDEX 01 02:25:58
  TRACK 121 AUDIO
    TITLE "TOEIC LR Kinnojyukugo_07_0121"
    INDEX 01 02:27:29
  TRACK 122 AUDIO
    TITLE "TOEIC LR Kinnojyukugo_07_0122"
    INDEX 01 02:28:31
  TRACK 123 AUDIO
    TITLE "TOEIC LR Kinnojyukugo_07_0123"
    INDEX 01 02:30:14
  TRACK 124 AUDIO
    TITLE "TOEIC LR Kinnojyukugo_07_0124"
    INDEX 01 02:30:51
  TRACK 125 AUDIO
    TITLE "TOEIC LR Kinnojyukugo_07_0125"
    INDEX 01 02:31:62
  TRACK 126 AUDIO
    TITLE "TOEIC LR Kinnojyukugo_07_0126"
    INDEX 01 02:32:28
  TRACK 127 AUDIO
    TITLE "TOEIC LR Kinnojyukugo_07_0127"
    INDEX 01 02:34:66
  TRACK 128 AUDIO
    TITLE "TOEIC LR Kinnojyukugo_07_0128"
    INDEX 01 02:35:31
  TRACK 129 AUDIO
    TITLE "TOEIC LR Kinnojyukugo_07_0129"
    INDEX 01 02:38:25
  TRACK 130 AUDIO
    TITLE "TOEIC LR Kinnojyukugo_07_0130"
    INDEX 01 02:38:51
  TRACK 131 AUDIO
    TITLE "TOEIC LR Kinnojyukugo_07_0131"
    INDEX 01 02:41:45
  TRACK 132 AUDIO
    TITLE "TOEIC LR Kinnojyukugo_07_0132"
    INDEX 01 02:42:46
  TRACK 133 AUDIO
    TITLE "TOEIC LR Kinnojyukugo_07_0133"
    INDEX 01 02:44:06
  TRACK 134 AUDIO
    TITLE "TOEIC LR Kinnojyukugo_07_0134"
    INDEX 01 02:44:43
  TRACK 135 AUDIO
    TITLE "TOEIC LR Kinnojyukugo_07_0135"
    INDEX 01 02:47:73
  TRACK 136 AUDIO
    TITLE "TOEIC LR Kinnojyukugo_07_0136"
    INDEX 01 02:48:51
  TRACK 137 AUDIO
    TITLE "TOEIC LR Kinnojyukugo_07_0137"
    INDEX 01 02:50:67
  TRACK 138 AUDIO
    TITLE "TOEIC LR Kinnojyukugo_07_0138"
    INDEX 01 02:51:30
  TRACK 139 AUDIO
    TITLE "TOEIC LR Kinnojyukugo_07_0139"
    INDEX 01 02:53:40
  TRACK 140 AUDIO
    TITLE "TOEIC LR Kinnojyukugo_07_0140"
    INDEX 01 02:53:66
  TRACK 141 AUDIO
    TITLE "TOEIC LR Kinnojyukugo_07_0141"
    INDEX 01 02:55:69
  TRACK 142 AUDIO
    TITLE "TOEIC LR Kinnojyukugo_07_0142"
    INDEX 01 02:56:74
  TRACK 143 AUDIO
    TITLE "TOEIC LR Kinnojyukugo_07_0143"
    INDEX 01 02:58:12
  TRACK 144 AUDIO
    TITLE "TOEIC LR Kinnojyukugo_07_0144"
    INDEX 01 02:58:47
  TRACK 145 AUDIO
    TITLE "TOEIC LR Kinnojyukugo_07_0145"
    INDEX 01 02:59:64
  TRACK 146 AUDIO
    TITLE "TOEIC LR Kinnojyukugo_07_0146"
    INDEX 01 03:00:23
  TRACK 147 AUDIO
    TITLE "TOEIC LR Kinnojyukugo_07_0147"
    INDEX 01 03:02:41
  TRACK 148 AUDIO
    TITLE "TOEIC LR Kinnojyukugo_07_0148"
    INDEX 01 03:03:03
  TRACK 149 AUDIO
    TITLE "TOEIC LR Kinnojyukugo_07_0149"
    INDEX 01 03:05:18
  TRACK 150 AUDIO
    TITLE "TOEIC LR Kinnojyukugo_07_0150"
    INDEX 01 03:05:45
  TRACK 151 AUDIO
    TITLE "TOEIC LR Kinnojyukugo_07_0151"
    INDEX 01 03:07:58
  TRACK 152 AUDIO
    TITLE "TOEIC LR Kinnojyukugo_07_0152"
    INDEX 01 03:08:58
  TRACK 153 AUDIO
    TITLE "TOEIC LR Kinnojyukugo_07_0153"
    INDEX 01 03:10:04
  TRACK 154 AUDIO
    TITLE "TOEIC LR Kinnojyukugo_07_0154"
    INDEX 01 03:10:39
  TRACK 155 AUDIO
    TITLE "TOEIC LR Kinnojyukugo_07_0155"
    INDEX 01 03:13:39
  TRACK 156 AUDIO
    TITLE "TOEIC LR Kinnojyukugo_07_0156"
    INDEX 01 03:14:03
  TRACK 157 AUDIO
    TITLE "TOEIC LR Kinnojyukugo_07_0157"
    INDEX 01 03:16:37
  TRACK 158 AUDIO
    TITLE "TOEIC LR Kinnojyukugo_07_0158"
    INDEX 01 03:17:02
  TRACK 159 AUDIO
    TITLE "TOEIC LR Kinnojyukugo_07_0159"
    INDEX 01 03:18:46
  TRACK 160 AUDIO
    TITLE "TOEIC LR Kinnojyukugo_07_0160"
    INDEX 01 03:18:72
  TRACK 161 AUDIO
    TITLE "TOEIC LR Kinnojyukugo_07_0161"
    INDEX 01 03:20:41
  TRACK 162 AUDIO
    TITLE "TOEIC LR Kinnojyukugo_07_0162"
    INDEX 01 03:21:43
  TRACK 163 AUDIO
    TITLE "TOEIC LR Kinnojyukugo_07_0163"
    INDEX 01 03:22:66
  TRACK 164 AUDIO
    TITLE "TOEIC LR Kinnojyukugo_07_0164"
    INDEX 01 03:23:30
  TRACK 165 AUDIO
    TITLE "TOEIC LR Kinnojyukugo_07_0165"
    INDEX 01 03:24:61
  TRACK 166 AUDIO
    TITLE "TOEIC LR Kinnojyukugo_07_0166"
    INDEX 01 03:25:25
  TRACK 167 AUDIO
    TITLE "TOEIC LR Kinnojyukugo_07_0167"
    INDEX 01 03:28:09
  TRACK 168 AUDIO
    TITLE "TOEIC LR Kinnojyukugo_07_0168"
    INDEX 01 03:28:50
  TRACK 169 AUDIO
    TITLE "TOEIC LR Kinnojyukugo_07_0169"
    INDEX 01 03:30:75
  TRACK 170 AUDIO
    TITLE "TOEIC LR Kinnojyukugo_07_0170"
    INDEX 01 03:31:25
  TRACK 171 AUDIO
    TITLE "TOEIC LR Kinnojyukugo_07_0171"
    INDEX 01 03:33:50
  TRACK 172 AUDIO
    TITLE "TOEIC LR Kinnojyukugo_07_0172"
    INDEX 01 03:34:49
  TRACK 173 AUDIO
    TITLE "TOEIC LR Kinnojyukugo_07_0173"
    INDEX 01 03:36:01
  TRACK 174 AUDIO
    TITLE "TOEIC LR Kinnojyukugo_07_0174"
    INDEX 01 03:36:34
  TRACK 175 AUDIO
    TITLE "TOEIC LR Kinnojyukugo_07_0175"
    INDEX 01 03:37:61
  TRACK 176 AUDIO
    TITLE "TOEIC LR Kinnojyukugo_07_0176"
    INDEX 01 03:38:25
  TRACK 177 AUDIO
    TITLE "TOEIC LR Kinnojyukugo_07_0177"
    INDEX 01 03:40:65
  TRACK 178 AUDIO
    TITLE "TOEIC LR Kinnojyukugo_07_0178"
    INDEX 01 03:41:28
  TRACK 179 AUDIO
    TITLE "TOEIC LR Kinnojyukugo_07_0179"
    INDEX 01 03:43:72
  TRACK 180 AUDIO
    TITLE "TOEIC LR Kinnojyukugo_07_0180"
    INDEX 01 03:44:20
  TRACK 181 AUDIO
    TITLE "TOEIC LR Kinnojyukugo_07_0181"
    INDEX 01 03:46:64
  TRACK 182 AUDIO
    TITLE "TOEIC LR Kinnojyukugo_07_0182"
    INDEX 01 03:47:62
  TRACK 183 AUDIO
    TITLE "TOEIC LR Kinnojyukugo_07_0183"
    INDEX 01 03:49:37
  TRACK 184 AUDIO
    TITLE "TOEIC LR Kinnojyukugo_07_0184"
    INDEX 01 03:50:01
  TRACK 185 AUDIO
    TITLE "TOEIC LR Kinnojyukugo_07_0185"
    INDEX 01 03:52:51
  TRACK 186 AUDIO
    TITLE "TOEIC LR Kinnojyukugo_07_0186"
    INDEX 01 03:53:15
  TRACK 187 AUDIO
    TITLE "TOEIC LR Kinnojyukugo_07_0187"
    INDEX 01 03:55:41
  TRACK 188 AUDIO
    TITLE "TOEIC LR Kinnojyukugo_07_0188"
    INDEX 01 03:56:06
  TRACK 189 AUDIO
    TITLE "TOEIC LR Kinnojyukugo_07_0189"
    INDEX 01 03:58:38
  TRACK 190 AUDIO
    TITLE "TOEIC LR Kinnojyukugo_07_0190"
    INDEX 01 03:58:63
  TRACK 191 AUDIO
    TITLE "TOEIC LR Kinnojyukugo_07_0191"
    INDEX 01 04:01:21
  TRACK 192 AUDIO
    TITLE "TOEIC LR Kinnojyukugo_07_0192"
    INDEX 01 04:02:24
  TRACK 193 AUDIO
    TITLE "TOEIC LR Kinnojyukugo_07_0193"
    INDEX 01 04:03:63
  TRACK 194 AUDIO
    TITLE "TOEIC LR Kinnojyukugo_07_0194"
    INDEX 01 04:04:27
  TRACK 195 AUDIO
    TITLE "TOEIC LR Kinnojyukugo_07_0195"
    INDEX 01 04:05:50
  TRACK 196 AUDIO
    TITLE "TOEIC LR Kinnojyukugo_07_0196"
    INDEX 01 04:06:14
  TRACK 197 AUDIO
    TITLE "TOEIC LR Kinnojyukugo_07_0197"
    INDEX 01 04:08:32
  TRACK 198 AUDIO
    TITLE "TOEIC LR Kinnojyukugo_07_0198"
    INDEX 01 04:08:70
  TRACK 199 AUDIO
    TITLE "TOEIC LR Kinnojyukugo_07_0199"
    INDEX 01 04:11:33
  TRACK 200 AUDIO
    TITLE "TOEIC LR Kinnojyukugo_07_0200"
    INDEX 01 04:11:58
  TRACK 201 AUDIO
    TITLE "TOEIC LR Kinnojyukugo_07_0201"
    INDEX 01 04:14:19
  TRACK 202 AUDIO
    TITLE "TOEIC LR Kinnojyukugo_07_0202"
    INDEX 01 04:15:21
  TRACK 203 AUDIO
    TITLE "TOEIC LR Kinnojyukugo_07_0203"
    INDEX 01 04:16:61
  TRACK 204 AUDIO
    TITLE "TOEIC LR Kinnojyukugo_07_0204"
    INDEX 01 04:17:25
  TRACK 205 AUDIO
    TITLE "TOEIC LR Kinnojyukugo_07_0205"
    INDEX 01 04:18:48
  TRACK 206 AUDIO
    TITLE "TOEIC LR Kinnojyukugo_07_0206"
    INDEX 01 04:19:28
  TRACK 207 AUDIO
    TITLE "TOEIC LR Kinnojyukugo_07_0207"
    INDEX 01 04:22:48
  TRACK 208 AUDIO
    TITLE "TOEIC LR Kinnojyukugo_07_0208"
    INDEX 01 04:23:14
  TRACK 209 AUDIO
    TITLE "TOEIC LR Kinnojyukugo_07_0209"
    INDEX 01 04:26:66
  TRACK 210 AUDIO
    TITLE "TOEIC LR Kinnojyukugo_07_0210"
    INDEX 01 04:27:14
  TRACK 211 AUDIO
    TITLE "TOEIC LR Kinnojyukugo_07_0211"
    INDEX 01 04:30:65
  TRACK 212 AUDIO
    TITLE "TOEIC LR Kinnojyukugo_07_0212"
    INDEX 01 04:31:67
  TRACK 213 AUDIO
    TITLE "TOEIC LR Kinnojyukugo_07_0213"
    INDEX 01 04:33:07
  TRACK 214 AUDIO
    TITLE "TOEIC LR Kinnojyukugo_07_0214"
    INDEX 01 04:33:50
  TRACK 215 AUDIO
    TITLE "TOEIC LR Kinnojyukugo_07_0215"
    INDEX 01 04:35:74
  TRACK 216 AUDIO
    TITLE "TOEIC LR Kinnojyukugo_07_0216"
    INDEX 01 04:36:37
  TRACK 217 AUDIO
    TITLE "TOEIC LR Kinnojyukugo_07_0217"
    INDEX 01 04:39:11
  TRACK 218 AUDIO
    TITLE "TOEIC LR Kinnojyukugo_07_0218"
    INDEX 01 04:39:52
  TRACK 219 AUDIO
    TITLE "TOEIC LR Kinnojyukugo_07_0219"
    INDEX 01 04:42:27
  TRACK 220 AUDIO
    TITLE "TOEIC LR Kinnojyukugo_07_0220"
    INDEX 01 04:42:55
  TRACK 221 AUDIO
    TITLE "TOEIC LR Kinnojyukugo_07_0221"
    INDEX 01 04:45:33
  TRACK 222 AUDIO
    TITLE "TOEIC LR Kinnojyukugo_07_0222"
    INDEX 01 04:46:35
  TRACK 223 AUDIO
    TITLE "TOEIC LR Kinnojyukugo_07_0223"
    INDEX 01 04:47:48
  TRACK 224 AUDIO
    TITLE "TOEIC LR Kinnojyukugo_07_0224"
    INDEX 01 04:48:12
  TRACK 225 AUDIO
    TITLE "TOEIC LR Kinnojyukugo_07_0225"
    INDEX 01 04:49:74
  TRACK 226 AUDIO
    TITLE "TOEIC LR Kinnojyukugo_07_0226"
    INDEX 01 04:50:41
  TRACK 227 AUDIO
    TITLE "TOEIC LR Kinnojyukugo_07_0227"
    INDEX 01 04:52:53
  TRACK 228 AUDIO
    TITLE "TOEIC LR Kinnojyukugo_07_0228"
    INDEX 01 04:53:17
  TRACK 229 AUDIO
    TITLE "TOEIC LR Kinnojyukugo_07_0229"
    INDEX 01 04:55:10
  TRACK 230 AUDIO
    TITLE "TOEIC LR Kinnojyukugo_07_0230"
    INDEX 01 04:55:40
  TRACK 231 AUDIO
    TITLE "TOEIC LR Kinnojyukugo_07_0231"
    INDEX 01 04:57:29
  TRACK 232 AUDIO
    TITLE "TOEIC LR Kinnojyukugo_07_0232"
    INDEX 01 04:58:32
  TRACK 233 AUDIO
    TITLE "TOEIC LR Kinnojyukugo_07_0233"
    INDEX 01 05:00:21
  TRACK 234 AUDIO
    TITLE "TOEIC LR Kinnojyukugo_07_0234"
    INDEX 01 05:00:59
  TRACK 235 AUDIO
    TITLE "TOEIC LR Kinnojyukugo_07_0235"
    INDEX 01 05:02:14
  TRACK 236 AUDIO
    TITLE "TOEIC LR Kinnojyukugo_07_0236"
    INDEX 01 05:02:54
  TRACK 237 AUDIO
    TITLE "TOEIC LR Kinnojyukugo_07_0237"
    INDEX 01 05:05:13
  TRACK 238 AUDIO
    TITLE "TOEIC LR Kinnojyukugo_07_0238"
    INDEX 01 05:05:52
  TRACK 239 AUDIO
    TITLE "TOEIC LR Kinnojyukugo_07_0239"
    INDEX 01 05:08:17
  TRACK 240 AUDIO
    TITLE "TOEIC LR Kinnojyukugo_07_0240"
    INDEX 01 05:08:42
  TRACK 241 AUDIO
    TITLE "TOEIC LR Kinnojyukugo_07_0241"
    INDEX 01 05:11:05
  TRACK 242 AUDIO
    TITLE "TOEIC LR Kinnojyukugo_07_0242"
    INDEX 01 05:12:07
  TRACK 243 AUDIO
    TITLE "TOEIC LR Kinnojyukugo_07_0243"
    INDEX 01 05:13:18
  TRACK 244 AUDIO
    TITLE "TOEIC LR Kinnojyukugo_07_0244"
    INDEX 01 05:13:55
  TRACK 245 AUDIO
    TITLE "TOEIC LR Kinnojyukugo_07_0245"
    INDEX 01 05:16:09
  TRACK 246 AUDIO
    TITLE "TOEIC LR Kinnojyukugo_07_0246"
    INDEX 01 05:16:52
  TRACK 247 AUDIO
    TITLE "TOEIC LR Kinnojyukugo_07_0247"
    INDEX 01 05:19:09
  TRACK 248 AUDIO
    TITLE "TOEIC LR Kinnojyukugo_07_0248"
    INDEX 01 05:19:44
  TRACK 249 AUDIO
    TITLE "TOEIC LR Kinnojyukugo_07_0249"
    INDEX 01 05:21:45
  TRACK 250 AUDIO
    TITLE "TOEIC LR Kinnojyukugo_07_0250"
    INDEX 01 05:21:70
  TRACK 251 AUDIO
    TITLE "TOEIC LR Kinnojyukugo_07_0251"
    INDEX 01 05:23:69
  TRACK 252 AUDIO
    TITLE "TOEIC LR Kinnojyukugo_07_0252"
    INDEX 01 05:24:71
  TRACK 253 AUDIO
    TITLE "TOEIC LR Kinnojyukugo_07_0253"
    INDEX 01 05:26:50
  TRACK 254 AUDIO
    TITLE "TOEIC LR Kinnojyukugo_07_0254"
    INDEX 01 05:27:12
  TRACK 255 AUDIO
    TITLE "TOEIC LR Kinnojyukugo_07_0255"
    INDEX 01 05:30:19
  TRACK 256 AUDIO
    TITLE "TOEIC LR Kinnojyukugo_07_0256"
    INDEX 01 05:30:58
  TRACK 257 AUDIO
    TITLE "TOEIC LR Kinnojyukugo_07_0257"
    INDEX 01 05:33:33
  TRACK 258 AUDIO
    TITLE "TOEIC LR Kinnojyukugo_07_0258"
    INDEX 01 05:33:72
  TRACK 259 AUDIO
    TITLE "TOEIC LR Kinnojyukugo_07_0259"
    INDEX 01 05:36:33
  TRACK 260 AUDIO
    TITLE "TOEIC LR Kinnojyukugo_07_0260"
    INDEX 01 05:36:58
  TRACK 261 AUDIO
    TITLE "TOEIC LR Kinnojyukugo_07_0261"
    INDEX 01 05:39:17
  TRACK 262 AUDIO
    TITLE "TOEIC LR Kinnojyukugo_07_0262"
    INDEX 01 05:40:19
  TRACK 263 AUDIO
    TITLE "TOEIC LR Kinnojyukugo_07_0263"
    INDEX 01 05:41:12
  TRACK 264 AUDIO
    TITLE "TOEIC LR Kinnojyukugo_07_0264"
    INDEX 01 05:41:57
  TRACK 265 AUDIO
    TITLE "TOEIC LR Kinnojyukugo_07_0265"
    INDEX 01 05:44:07
  TRACK 266 AUDIO
    TITLE "TOEIC LR Kinnojyukugo_07_0266"
    INDEX 01 05:44:40
  TRACK 267 AUDIO
    TITLE "TOEIC LR Kinnojyukugo_07_0267"
    INDEX 01 05:46:37
  TRACK 268 AUDIO
    TITLE "TOEIC LR Kinnojyukugo_07_0268"
    INDEX 01 05:47:01
  TRACK 269 AUDIO
    TITLE "TOEIC LR Kinnojyukugo_07_0269"
    INDEX 01 05:48:65
  TRACK 270 AUDIO
    TITLE "TOEIC LR Kinnojyukugo_07_0270"
    INDEX 01 05:49:16
  TRACK 271 AUDIO
    TITLE "TOEIC LR Kinnojyukugo_07_0271"
    INDEX 01 05:51:05
  TRACK 272 AUDIO
    TITLE "TOEIC LR Kinnojyukugo_07_0272"
    INDEX 01 05:52:04
  TRACK 273 AUDIO
    TITLE "TOEIC LR Kinnojyukugo_07_0273"
    INDEX 01 05:53:31
  TRACK 274 AUDIO
    TITLE "TOEIC LR Kinnojyukugo_07_0274"
    INDEX 01 05:53:69
  TRACK 275 AUDIO
    TITLE "TOEIC LR Kinnojyukugo_07_0275"
    INDEX 01 05:56:30
  TRACK 276 AUDIO
    TITLE "TOEIC LR Kinnojyukugo_07_0276"
    INDEX 01 05:56:69
  TRACK 277 AUDIO
    TITLE "TOEIC LR Kinnojyukugo_07_0277"
    INDEX 01 05:59:63
  TRACK 278 AUDIO
    TITLE "TOEIC LR Kinnojyukugo_07_0278"
    INDEX 01 06:00:29
  TRACK 279 AUDIO
    TITLE "TOEIC LR Kinnojyukugo_07_0279"
    INDEX 01 06:03:06
  TRACK 280 AUDIO
    TITLE "TOEIC LR Kinnojyukugo_07_0280"
    INDEX 01 06:03:30
  TRACK 281 AUDIO
    TITLE "TOEIC LR Kinnojyukugo_07_0281"
    INDEX 01 06:06:06
  TRACK 282 AUDIO
    TITLE "TOEIC LR Kinnojyukugo_07_0282"
    INDEX 01 06:07:06
  TRACK 283 AUDIO
    TITLE "TOEIC LR Kinnojyukugo_07_0283"
    INDEX 01 06:08:33
  TRACK 284 AUDIO
    TITLE "TOEIC LR Kinnojyukugo_07_0284"
    INDEX 01 06:08:70
  TRACK 285 AUDIO
    TITLE "TOEIC LR Kinnojyukugo_07_0285"
    INDEX 01 06:10:28
  TRACK 286 AUDIO
    TITLE "TOEIC LR Kinnojyukugo_07_0286"
    INDEX 01 06:10:65
  TRACK 287 AUDIO
    TITLE "TOEIC LR Kinnojyukugo_07_0287"
    INDEX 01 06:12:66
  TRACK 288 AUDIO
    TITLE "TOEIC LR Kinnojyukugo_07_0288"
    INDEX 01 06:13:30
  TRACK 289 AUDIO
    TITLE "TOEIC LR Kinnojyukugo_07_0289"
    INDEX 01 06:15:37
  TRACK 290 AUDIO
    TITLE "TOEIC LR Kinnojyukugo_07_0290"
    INDEX 01 06:15:62
  TRACK 291 AUDIO
    TITLE "TOEIC LR Kinnojyukugo_07_0291"
    INDEX 01 06:17:69
  TRACK 292 AUDIO
    TITLE "TOEIC LR Kinnojyukugo_07_0292"
    INDEX 01 06:18:70
  TRACK 293 AUDIO
    TITLE "TOEIC LR Kinnojyukugo_07_0293"
    INDEX 01 06:20:30
  TRACK 294 AUDIO
    TITLE "TOEIC LR Kinnojyukugo_07_0294"
    INDEX 01 06:20:67
  TRACK 295 AUDIO
    TITLE "TOEIC LR Kinnojyukugo_07_0295"
    INDEX 01 06:22:15
  TRACK 296 AUDIO
    TITLE "TOEIC LR Kinnojyukugo_07_0296"
    INDEX 01 06:22:56
  TRACK 297 AUDIO
    TITLE "TOEIC LR Kinnojyukugo_07_0297"
    INDEX 01 06:25:37
  TRACK 298 AUDIO
    TITLE "TOEIC LR Kinnojyukugo_07_0298"
    INDEX 01 06:26:05
  TRACK 299 AUDIO
    TITLE "TOEIC LR Kinnojyukugo_07_0299"
    INDEX 01 06:28:20
  TRACK 300 AUDIO
    TITLE "TOEIC LR Kinnojyukugo_07_0300"
    INDEX 01 06:28:45
  TRACK 301 AUDIO
    TITLE "TOEIC LR Kinnojyukugo_07_0301"
    INDEX 01 06:30:60
  TRACK 302 AUDIO
    TITLE "TOEIC LR Kinnojyukugo_07_0302"
    INDEX 01 06:31:61
  TRACK 303 AUDIO
    TITLE "TOEIC LR Kinnojyukugo_07_0303"
    INDEX 01 06:33:21
  TRACK 304 AUDIO
    TITLE "TOEIC LR Kinnojyukugo_07_0304"
    INDEX 01 06:33:60
  TRACK 305 AUDIO
    TITLE "TOEIC LR Kinnojyukugo_07_0305"
    INDEX 01 06:36:61
  TRACK 306 AUDIO
    TITLE "TOEIC LR Kinnojyukugo_07_0306"
    INDEX 01 06:37:29
  TRACK 307 AUDIO
    TITLE "TOEIC LR Kinnojyukugo_07_0307"
    INDEX 01 06:39:28
  TRACK 308 AUDIO
    TITLE "TOEIC LR Kinnojyukugo_07_0308"
    INDEX 01 06:39:65
  TRACK 309 AUDIO
    TITLE "TOEIC LR Kinnojyukugo_07_0309"
    INDEX 01 06:42:14
  TRACK 310 AUDIO
    TITLE "TOEIC LR Kinnojyukugo_07_0310"
    INDEX 01 06:42:38
  TRACK 311 AUDIO
    TITLE "TOEIC LR Kinnojyukugo_07_0311"
    INDEX 01 06:44:60
  TRACK 312 AUDIO
    TITLE "TOEIC LR Kinnojyukugo_07_0312"
    INDEX 01 06:45:65
  TRACK 313 AUDIO
    TITLE "TOEIC LR Kinnojyukugo_07_0313"
    INDEX 01 06:47:56
  TRACK 314 AUDIO
    TITLE "TOEIC LR Kinnojyukugo_07_0314"
    INDEX 01 06:48:19
  TRACK 315 AUDIO
    TITLE "TOEIC LR Kinnojyukugo_07_0315"
    INDEX 01 06:50:37
  TRACK 316 AUDIO
    TITLE "TOEIC LR Kinnojyukugo_07_0316"
    INDEX 01 06:50:74
  TRACK 317 AUDIO
    TITLE "TOEIC LR Kinnojyukugo_07_0317"
    INDEX 01 06:54:37
  TRACK 318 AUDIO
    TITLE "TOEIC LR Kinnojyukugo_07_0318"
    INDEX 01 06:55:03
  TRACK 319 AUDIO
    TITLE "TOEIC LR Kinnojyukugo_07_0319"
    INDEX 01 06:57:74
  TRACK 320 AUDIO
    TITLE "TOEIC LR Kinnojyukugo_07_0320"
    INDEX 01 06:58:25
  TRACK 321 AUDIO
    TITLE "TOEIC LR Kinnojyukugo_07_0321"
    INDEX 01 07:01:21
  TRACK 322 AUDIO
    TITLE "TOEIC LR Kinnojyukugo_07_0322"
    INDEX 01 07:02:29
  TRACK 323 AUDIO
    TITLE "TOEIC LR Kinnojyukugo_07_0323"
    INDEX 01 07:03:40
  TRACK 324 AUDIO
    TITLE "TOEIC LR Kinnojyukugo_07_0324"
    INDEX 01 07:04:02
  TRACK 325 AUDIO
    TITLE "TOEIC LR Kinnojyukugo_07_0325"
    INDEX 01 07:06:17
  TRACK 326 AUDIO
    TITLE "TOEIC LR Kinnojyukugo_07_0326"
    INDEX 01 07:06:56
  TRACK 327 AUDIO
    TITLE "TOEIC LR Kinnojyukugo_07_0327"
    INDEX 01 07:09:29
  TRACK 328 AUDIO
    TITLE "TOEIC LR Kinnojyukugo_07_0328"
    INDEX 01 07:09:68
  TRACK 329 AUDIO
    TITLE "TOEIC LR Kinnojyukugo_07_0329"
    INDEX 01 07:12:48
  TRACK 330 AUDIO
    TITLE "TOEIC LR Kinnojyukugo_07_0330"
    INDEX 01 07:13:01
  TRACK 331 AUDIO
    TITLE "TOEIC LR Kinnojyukugo_07_0331"
    INDEX 01 07:15:53
  TRACK 332 AUDIO
    TITLE "TOEIC LR Kinnojyukugo_07_0332"
    INDEX 01 07:16:60
  TRACK 333 AUDIO
    TITLE "TOEIC LR Kinnojyukugo_07_0333"
    INDEX 01 07:18:22
  TRACK 334 AUDIO
    TITLE "TOEIC LR Kinnojyukugo_07_0334"
    INDEX 01 07:18:57
  TRACK 335 AUDIO
    TITLE "TOEIC LR Kinnojyukugo_07_0335"
    INDEX 01 07:20:11
  TRACK 336 AUDIO
    TITLE "TOEIC LR Kinnojyukugo_07_0336"
    INDEX 01 07:20:48
  TRACK 337 AUDIO
    TITLE "TOEIC LR Kinnojyukugo_07_0337"
    INDEX 01 07:23:19
  TRACK 338 AUDIO
    TITLE "TOEIC LR Kinnojyukugo_07_0338"
    INDEX 01 07:23:60
  TRACK 339 AUDIO
    TITLE "TOEIC LR Kinnojyukugo_07_0339"
    INDEX 01 07:26:39
  TRACK 340 AUDIO
    TITLE "TOEIC LR Kinnojyukugo_07_0340"
    INDEX 01 07:26:74
  TRACK 341 AUDIO
    TITLE "TOEIC LR Kinnojyukugo_07_0341"
    INDEX 01 07:29:51
  TRACK 342 AUDIO
    TITLE "TOEIC LR Kinnojyukugo_07_0342"
    INDEX 01 07:30:60
  TRACK 343 AUDIO
    TITLE "TOEIC LR Kinnojyukugo_07_0343"
    INDEX 01 07:32:69
  TRACK 344 AUDIO
    TITLE "TOEIC LR Kinnojyukugo_07_0344"
    INDEX 01 07:33:33
  TRACK 345 AUDIO
    TITLE "TOEIC LR Kinnojyukugo_07_0345"
    INDEX 01 07:35:12
  TRACK 346 AUDIO
    TITLE "TOEIC LR Kinnojyukugo_07_0346"
    INDEX 01 07:35:53
  TRACK 347 AUDIO
    TITLE "TOEIC LR Kinnojyukugo_07_0347"
    INDEX 01 07:39:08
  TRACK 348 AUDIO
    TITLE "TOEIC LR Kinnojyukugo_07_0348"
    INDEX 01 07:39:53
  TRACK 349 AUDIO
    TITLE "TOEIC LR Kinnojyukugo_07_0349"
    INDEX 01 07:43:14
  TRACK 350 AUDIO
    TITLE "TOEIC LR Kinnojyukugo_07_0350"
    INDEX 01 07:43:43
  TRACK 351 AUDIO
    TITLE "TOEIC LR Kinnojyukugo_07_0351"
    INDEX 01 07:47:04
  TRACK 352 AUDIO
    TITLE "TOEIC LR Kinnojyukugo_07_0352"
    INDEX 01 07:48:07
  TRACK 353 AUDIO
    TITLE "TOEIC LR Kinnojyukugo_07_0353"
    INDEX 01 07:49:10
  TRACK 354 AUDIO
    TITLE "TOEIC LR Kinnojyukugo_07_0354"
    INDEX 01 07:49:57
  TRACK 355 AUDIO
    TITLE "TOEIC LR Kinnojyukugo_07_0355"
    INDEX 01 07:51:74
  TRACK 356 AUDIO
    TITLE "TOEIC LR Kinnojyukugo_07_0356"
    INDEX 01 07:52:34
  TRACK 357 AUDIO
    TITLE "TOEIC LR Kinnojyukugo_07_0357"
    INDEX 01 07:55:54
  TRACK 358 AUDIO
    TITLE "TOEIC LR Kinnojyukugo_07_0358"
    INDEX 01 07:56:18
  TRACK 359 AUDIO
    TITLE "TOEIC LR Kinnojyukugo_07_0359"
    INDEX 01 07:58:51
  TRACK 360 AUDIO
    TITLE "TOEIC LR Kinnojyukugo_07_0360"
    INDEX 01 07:58:74
  TRACK 361 AUDIO
    TITLE "TOEIC LR Kinnojyukugo_07_0361"
    INDEX 01 08:01:33
  TRACK 362 AUDIO
    TITLE "TOEIC LR Kinnojyukugo_07_0362"
    INDEX 01 08:02:33
  TRACK 363 AUDIO
    TITLE "TOEIC LR Kinnojyukugo_07_0363"
    INDEX 01 08:03:58
  TRACK 364 AUDIO
    TITLE "TOEIC LR Kinnojyukugo_07_0364"
    INDEX 01 08:04:20
  TRACK 365 AUDIO
    TITLE "TOEIC LR Kinnojyukugo_07_0365"
    INDEX 01 08:07:03
  TRACK 366 AUDIO
    TITLE "TOEIC LR Kinnojyukugo_07_0366"
    INDEX 01 08:07:44
  TRACK 367 AUDIO
    TITLE "TOEIC LR Kinnojyukugo_07_0367"
    INDEX 01 08:11:30
  TRACK 368 AUDIO
    TITLE "TOEIC LR Kinnojyukugo_07_0368"
    INDEX 01 08:11:71
  TRACK 369 AUDIO
    TITLE "TOEIC LR Kinnojyukugo_07_0369"
    INDEX 01 08:15:10
  TRACK 370 AUDIO
    TITLE "TOEIC LR Kinnojyukugo_07_0370"
    INDEX 01 08:15:43
  TRACK 371 AUDIO
    TITLE "TOEIC LR Kinnojyukugo_07_0371"
    INDEX 01 08:18:59
  TRACK 372 AUDIO
    TITLE "TOEIC LR Kinnojyukugo_07_0372"
    INDEX 01 08:19:64
  TRACK 373 AUDIO
    TITLE "TOEIC LR Kinnojyukugo_07_0373"
    INDEX 01 08:21:12
  TRACK 374 AUDIO
    TITLE "TOEIC LR Kinnojyukugo_07_0374"
    INDEX 01 08:21:57
  TRACK 375 AUDIO
    TITLE "TOEIC LR Kinnojyukugo_07_0375"
    INDEX 01 08:23:04
  TRACK 376 AUDIO
    TITLE "TOEIC LR Kinnojyukugo_07_0376"
    INDEX 01 08:23:41
  TRACK 377 AUDIO
    TITLE "TOEIC LR Kinnojyukugo_07_0377"
    INDEX 01 08:26:43
  TRACK 378 AUDIO
    TITLE "TOEIC LR Kinnojyukugo_07_0378"
    INDEX 01 08:27:05
  TRACK 379 AUDIO
    TITLE "TOEIC LR Kinnojyukugo_07_0379"
    INDEX 01 08:29:41
  TRACK 380 AUDIO
    TITLE "TOEIC LR Kinnojyukugo_07_0380"
    INDEX 01 08:29:67
  TRACK 381 AUDIO
    TITLE "TOEIC LR Kinnojyukugo_07_0381"
    INDEX 01 08:32:28
  TRACK 382 AUDIO
    TITLE "TOEIC LR Kinnojyukugo_07_0382"
    INDEX 01 08:33:29
  TRACK 383 AUDIO
    TITLE "TOEIC LR Kinnojyukugo_07_0383"
    INDEX 01 08:34:62
  TRACK 384 AUDIO
    TITLE "TOEIC LR Kinnojyukugo_07_0384"
    INDEX 01 08:35:24
  TRACK 385 AUDIO
    TITLE "TOEIC LR Kinnojyukugo_07_0385"
    INDEX 01 08:37:27
  TRACK 386 AUDIO
    TITLE "TOEIC LR Kinnojyukugo_07_0386"
    INDEX 01 08:37:64
  TRACK 387 AUDIO
    TITLE "TOEIC LR Kinnojyukugo_07_0387"
    INDEX 01 08:40:14
  TRACK 388 AUDIO
    TITLE "TOEIC LR Kinnojyukugo_07_0388"
    INDEX 01 08:40:53
  TRACK 389 AUDIO
    TITLE "TOEIC LR Kinnojyukugo_07_0389"
    INDEX 01 08:42:66
  TRACK 390 AUDIO
    TITLE "TOEIC LR Kinnojyukugo_07_0390"
    INDEX 01 08:43:14
  TRACK 391 AUDIO
    TITLE "TOEIC LR Kinnojyukugo_07_0391"
    INDEX 01 08:45:27
  TRACK 392 AUDIO
    TITLE "TOEIC LR Kinnojyukugo_07_0392"
    INDEX 01 08:46:28
  TRACK 393 AUDIO
    TITLE "TOEIC LR Kinnojyukugo_07_0393"
    INDEX 01 08:47:43
  TRACK 394 AUDIO
    TITLE "TOEIC LR Kinnojyukugo_07_0394"
    INDEX 01 08:48:07
  TRACK 395 AUDIO
    TITLE "TOEIC LR Kinnojyukugo_07_0395"
    INDEX 01 08:50:28
  TRACK 396 AUDIO
    TITLE "TOEIC LR Kinnojyukugo_07_0396"
    INDEX 01 08:50:67
  TRACK 397 AUDIO
    TITLE "TOEIC LR Kinnojyukugo_07_0397"
    INDEX 01 08:53:42
  TRACK 398 AUDIO
    TITLE "TOEIC LR Kinnojyukugo_07_0398"
    INDEX 01 08:54:06
  TRACK 399 AUDIO
    TITLE "TOEIC LR Kinnojyukugo_07_0399"
    INDEX 01 08:56:48
  TRACK 400 AUDIO
    TITLE "TOEIC LR Kinnojyukugo_07_0400"
    INDEX 01 08:56:70
  TRACK 401 AUDIO
    TITLE "TOEIC LR Kinnojyukugo_07_0401"
    INDEX 01 08:59:37
  TRACK 402 AUDIO
    TITLE "TOEIC LR Kinnojyukugo_07_0402"
    INDEX 01 09:00:34
  TRACK 403 AUDIO
    TITLE "TOEIC LR Kinnojyukugo_07_0403"
    INDEX 01 09:01:57
  TRACK 404 AUDIO
    TITLE "TOEIC LR Kinnojyukugo_07_0404"
    INDEX 01 09:02:19
  TRACK 405 AUDIO
    TITLE "TOEIC LR Kinnojyukugo_07_0405"
    INDEX 01 09:04:53
  TRACK 406 AUDIO
    TITLE "TOEIC LR Kinnojyukugo_07_0406"
    INDEX 01 09:05:12
  TRACK 407 AUDIO
    TITLE "TOEIC LR Kinnojyukugo_07_0407"
    INDEX 01 09:08:22
  TRACK 408 AUDIO
    TITLE "TOEIC LR Kinnojyukugo_07_0408"
    INDEX 01 09:08:61
  TRACK 409 AUDIO
    TITLE "TOEIC LR Kinnojyukugo_07_0409"
    INDEX 01 09:11:18
  TRACK 410 AUDIO
    TITLE "TOEIC LR Kinnojyukugo_07_0410"
    INDEX 01 09:11:46
  TRACK 411 AUDIO
    TITLE "TOEIC LR Kinnojyukugo_07_0411"
    INDEX 01 09:14:03
  TRACK 412 AUDIO
    TITLE "TOEIC LR Kinnojyukugo_07_0412"
    INDEX 01 09:15:06
  TRACK 413 AUDIO
    TITLE "TOEIC LR Kinnojyukugo_07_0413"
    INDEX 01 09:16:35
  TRACK 414 AUDIO
    TITLE "TOEIC LR Kinnojyukugo_07_0414"
    INDEX 01 09:16:72
  TRACK 415 AUDIO
    TITLE "TOEIC LR Kinnojyukugo_07_0415"
    INDEX 01 09:18:52
  TRACK 416 AUDIO
    TITLE "TOEIC LR Kinnojyukugo_07_0416"
    INDEX 01 09:19:16
  TRACK 417 AUDIO
    TITLE "TOEIC LR Kinnojyukugo_07_0417"
    INDEX 01 09:22:45
  TRACK 418 AUDIO
    TITLE "TOEIC LR Kinnojyukugo_07_0418"
    INDEX 01 09:23:08
  TRACK 419 AUDIO
    TITLE "TOEIC LR Kinnojyukugo_07_0419"
    INDEX 01 09:25:57
  TRACK 420 AUDIO
    TITLE "TOEIC LR Kinnojyukugo_07_0420"
    INDEX 01 09:26:10
  TRACK 421 AUDIO
    TITLE "TOEIC LR Kinnojyukugo_07_0421"
    INDEX 01 09:28:56
  TRACK 422 AUDIO
    TITLE "TOEIC LR Kinnojyukugo_07_0422"
    INDEX 01 09:29:57
  TRACK 423 AUDIO
    TITLE "TOEIC LR Kinnojyukugo_07_0423"
    INDEX 01 09:31:03
  TRACK 424 AUDIO
    TITLE "TOEIC LR Kinnojyukugo_07_0424"
    INDEX 01 09:31:40
  TRACK 425 AUDIO
    TITLE "TOEIC LR Kinnojyukugo_07_0425"
    INDEX 01 09:34:25
  TRACK 426 AUDIO
    TITLE "TOEIC LR Kinnojyukugo_07_0426"
    INDEX 01 09:34:66
  TRACK 427 AUDIO
    TITLE "TOEIC LR Kinnojyukugo_07_0427"
    INDEX 01 09:37:16
  TRACK 428 AUDIO
    TITLE "TOEIC LR Kinnojyukugo_07_0428"
    INDEX 01 09:37:55
  TRACK 429 AUDIO
    TITLE "TOEIC LR Kinnojyukugo_07_0429"
    INDEX 01 09:39:58
  TRACK 430 AUDIO
    TITLE "TOEIC LR Kinnojyukugo_07_0430"
    INDEX 01 09:40:08
  TRACK 431 AUDIO
    TITLE "TOEIC LR Kinnojyukugo_07_0431"
    INDEX 01 09:42:11
  TRACK 432 AUDIO
    TITLE "TOEIC LR Kinnojyukugo_07_0432"
    INDEX 01 09:43:10
  TRACK 433 AUDIO
    TITLE "TOEIC LR Kinnojyukugo_07_0433"
    INDEX 01 09:44:22
  TRACK 434 AUDIO
    TITLE "TOEIC LR Kinnojyukugo_07_0434"
    INDEX 01 09:44:61
  TRACK 435 AUDIO
    TITLE "TOEIC LR Kinnojyukugo_07_0435"
    INDEX 01 09:48:17
  TRACK 436 AUDIO
    TITLE "TOEIC LR Kinnojyukugo_07_0436"
    INDEX 01 09:48:59
  TRACK 437 AUDIO
    TITLE "TOEIC LR Kinnojyukugo_07_0437"
    INDEX 01 09:50:52
  TRACK 438 AUDIO
    TITLE "TOEIC LR Kinnojyukugo_07_0438"
    INDEX 01 09:51:16
  TRACK 439 AUDIO
    TITLE "TOEIC LR Kinnojyukugo_07_0439"
    INDEX 01 09:53:21
  TRACK 440 AUDIO
    TITLE "TOEIC LR Kinnojyukugo_07_0440"
    INDEX 01 09:53:44
  TRACK 441 AUDIO
    TITLE "TOEIC LR Kinnojyukugo_07_0441"
    INDEX 01 09:55:51
  TRACK 442 AUDIO
    TITLE "TOEIC LR Kinnojyukugo_07_0442"
    INDEX 01 09:56:50
  TRACK 443 AUDIO
    TITLE "TOEIC LR Kinnojyukugo_07_0443"
    INDEX 01 09:58:06
  TRACK 444 AUDIO
    TITLE "TOEIC LR Kinnojyukugo_07_0444"
    INDEX 01 09:58:45
  TRACK 445 AUDIO
    TITLE "TOEIC LR Kinnojyukugo_07_0445"
    INDEX 01 10:02:08
  TRACK 446 AUDIO
    TITLE "TOEIC LR Kinnojyukugo_07_0446"
    INDEX 01 10:02:47
  TRACK 447 AUDIO
    TITLE "TOEIC LR Kinnojyukugo_07_0447"
    INDEX 01 10:05:47
  TRACK 448 AUDIO
    TITLE "TOEIC LR Kinnojyukugo_07_0448"
    INDEX 01 10:06:15
  TRACK 449 AUDIO
    TITLE "TOEIC LR Kinnojyukugo_07_0449"
    INDEX 01 10:08:51
  TRACK 450 AUDIO
    TITLE "TOEIC LR Kinnojyukugo_07_0450"
    INDEX 01 10:08:75
  TRACK 451 AUDIO
    TITLE "TOEIC LR Kinnojyukugo_07_0451"
    INDEX 01 10:11:36
  TRACK 452 AUDIO
    TITLE "TOEIC LR Kinnojyukugo_07_0452"
    INDEX 01 10:12:36
  TRACK 453 AUDIO
    TITLE "TOEIC LR Kinnojyukugo_07_0453"
    INDEX 01 10:14:48
  TRACK 454 AUDIO
    TITLE "TOEIC LR Kinnojyukugo_07_0454"
    INDEX 01 10:15:10
  TRACK 455 AUDIO
    TITLE "TOEIC LR Kinnojyukugo_07_0455"
    INDEX 01 10:16:20
  TRACK 456 AUDIO
    TITLE "TOEIC LR Kinnojyukugo_07_0456"
    INDEX 01 10:16:61
  TRACK 457 AUDIO
    TITLE "TOEIC LR Kinnojyukugo_07_0457"
    INDEX 01 10:18:54
  TRACK 458 AUDIO
    TITLE "TOEIC LR Kinnojyukugo_07_0458"
    INDEX 01 10:19:20
  TRACK 459 AUDIO
    TITLE "TOEIC LR Kinnojyukugo_07_0459"
    INDEX 01 10:21:07
  TRACK 460 AUDIO
    TITLE "TOEIC LR Kinnojyukugo_07_0460"
    INDEX 01 10:21:38
  TRACK 461 AUDIO
    TITLE "TOEIC LR Kinnojyukugo_07_0461"
    INDEX 01 10:23:28
  TRACK 462 AUDIO
    TITLE "TOEIC LR Kinnojyukugo_07_0462"
    INDEX 01 10:24:33
  TRACK 463 AUDIO
    TITLE "TOEIC LR Kinnojyukugo_07_0463"
    INDEX 01 10:25:60
  TRACK 464 AUDIO
    TITLE "TOEIC LR Kinnojyukugo_07_0464"
    INDEX 01 10:26:22
  TRACK 465 AUDIO
    TITLE "TOEIC LR Kinnojyukugo_07_0465"
    INDEX 01 10:28:54
  TRACK 466 AUDIO
    TITLE "TOEIC LR Kinnojyukugo_07_0466"
    INDEX 01 10:29:18
  TRACK 467 AUDIO
    TITLE "TOEIC LR Kinnojyukugo_07_0467"
    INDEX 01 10:31:21
  TRACK 468 AUDIO
    TITLE "TOEIC LR Kinnojyukugo_07_0468"
    INDEX 01 10:31:64
  TRACK 469 AUDIO
    TITLE "TOEIC LR Kinnojyukugo_07_0469"
    INDEX 01 10:33:46
  TRACK 470 AUDIO
    TITLE "TOEIC LR Kinnojyukugo_07_0470"
    INDEX 01 10:33:75
  TRACK 471 AUDIO
    TITLE "TOEIC LR Kinnojyukugo_07_0471"
    INDEX 01 10:35:58
  TRACK 472 AUDIO
    TITLE "TOEIC LR Kinnojyukugo_07_0472"
    INDEX 01 10:36:61
  TRACK 473 AUDIO
    TITLE "TOEIC LR Kinnojyukugo_07_0473"
    INDEX 01 10:38:37
  TRACK 474 AUDIO
    TITLE "TOEIC LR Kinnojyukugo_07_0474"
    INDEX 01 10:38:74
  TRACK 475 AUDIO
    TITLE "TOEIC LR Kinnojyukugo_07_0475"
    INDEX 01 10:41:39
  TRACK 476 AUDIO
    TITLE "TOEIC LR Kinnojyukugo_07_0476"
    INDEX 01 10:41:72
  TRACK 477 AUDIO
    TITLE "TOEIC LR Kinnojyukugo_07_0477"
    INDEX 01 10:44:28
  TRACK 478 AUDIO
    TITLE "TOEIC LR Kinnojyukugo_07_0478"
    INDEX 01 10:44:69
  TRACK 479 AUDIO
    TITLE "TOEIC LR Kinnojyukugo_07_0479"
    INDEX 01 10:47:26
  TRACK 480 AUDIO
    TITLE "TOEIC LR Kinnojyukugo_07_0480"
    INDEX 01 10:47:53
  TRACK 481 AUDIO
    TITLE "TOEIC LR Kinnojyukugo_07_0481"
    INDEX 01 10:50:13
  TRACK 482 AUDIO
    TITLE "TOEIC LR Kinnojyukugo_07_0482"
    INDEX 01 10:51:14
  TRACK 483 AUDIO
    TITLE "TOEIC LR Kinnojyukugo_07_0483"
    INDEX 01 10:52:29
  TRACK 484 AUDIO
    TITLE "TOEIC LR Kinnojyukugo_07_0484"
    INDEX 01 10:52:68
  TRACK 485 AUDIO
    TITLE "TOEIC LR Kinnojyukugo_07_0485"
    INDEX 01 10:55:47
  TRACK 486 AUDIO
    TITLE "TOEIC LR Kinnojyukugo_07_0486"
    INDEX 01 10:56:11
  TRACK 487 AUDIO
    TITLE "TOEIC LR Kinnojyukugo_07_0487"
    INDEX 01 10:58:49
  TRACK 488 AUDIO
    TITLE "TOEIC LR Kinnojyukugo_07_0488"
    INDEX 01 10:59:10
  TRACK 489 AUDIO
    TITLE "TOEIC LR Kinnojyukugo_07_0489"
    INDEX 01 11:01:54
  TRACK 490 AUDIO
    TITLE "TOEIC LR Kinnojyukugo_07_0490"
    INDEX 01 11:02:02
  TRACK 491 AUDIO
    TITLE "TOEIC LR Kinnojyukugo_07_0491"
    INDEX 01 11:04:46
  TRACK 492 AUDIO
    TITLE "TOEIC LR Kinnojyukugo_07_0492"
    INDEX 01 11:05:46
  TRACK 493 AUDIO
    TITLE "TOEIC LR Kinnojyukugo_07_0493"
    INDEX 01 11:06:70
  TRACK 494 AUDIO
    TITLE "TOEIC LR Kinnojyukugo_07_0494"
    INDEX 01 11:07:37
  TRACK 495 AUDIO
    TITLE "TOEIC LR Kinnojyukugo_07_0495"
    INDEX 01 11:08:58
  TRACK 496 AUDIO
    TITLE "TOEIC LR Kinnojyukugo_07_0496"
    INDEX 01 11:09:20
  TRACK 497 AUDIO
    TITLE "TOEIC LR Kinnojyukugo_07_0497"
    INDEX 01 11:11:44
  TRACK 498 AUDIO
    TITLE "TOEIC LR Kinnojyukugo_07_0498"
    INDEX 01 11:12:12
  TRACK 499 AUDIO
    TITLE "TOEIC LR Kinnojyukugo_07_0499"
    INDEX 01 11:14:41
  TRACK 500 AUDIO
    TITLE "TOEIC LR Kinnojyukugo_07_0500"
    INDEX 01 11:14:68
  TRACK 501 AUDIO
    TITLE "TOEIC LR Kinnojyukugo_07_0501"
    INDEX 01 11:17:23
  TRACK 502 AUDIO
    TITLE "TOEIC LR Kinnojyukugo_07_0502"
    INDEX 01 11:18:30
  TRACK 503 AUDIO
    TITLE "TOEIC LR Kinnojyukugo_07_0503"
    INDEX 01 11:20:14
  TRACK 504 AUDIO
    TITLE "TOEIC LR Kinnojyukugo_07_0504"
    INDEX 01 11:20:55
  TRACK 505 AUDIO
    TITLE "TOEIC LR Kinnojyukugo_07_0505"
    INDEX 01 11:21:74
  TRACK 506 AUDIO
    TITLE "TOEIC LR Kinnojyukugo_07_0506"
    INDEX 01 11:22:38
  TRACK 507 AUDIO
    TITLE "TOEIC LR Kinnojyukugo_07_0507"
    INDEX 01 11:24:49
  TRACK 508 AUDIO
    TITLE "TOEIC LR Kinnojyukugo_07_0508"
    INDEX 01 11:25:13
  TRACK 509 AUDIO
    TITLE "TOEIC LR Kinnojyukugo_07_0509"
    INDEX 01 11:28:05
  TRACK 510 AUDIO
    TITLE "TOEIC LR Kinnojyukugo_07_0510"
    INDEX 01 11:28:31
  TRACK 511 AUDIO
    TITLE "TOEIC LR Kinnojyukugo_07_0511"
    INDEX 01 11:31:23
  TRACK 512 AUDIO
    TITLE "TOEIC LR Kinnojyukugo_07_0512"
    INDEX 01 11:32:23
  TRACK 513 AUDIO
    TITLE "TOEIC LR Kinnojyukugo_07_0513"
    INDEX 01 11:33:52
  TRACK 514 AUDIO
    TITLE "TOEIC LR Kinnojyukugo_07_0514"
    INDEX 01 11:34:22
  TRACK 515 AUDIO
    TITLE "TOEIC LR Kinnojyukugo_07_0515"
    INDEX 01 11:35:52
  TRACK 516 AUDIO
    TITLE "TOEIC LR Kinnojyukugo_07_0516"
    INDEX 01 11:36:17
  TRACK 517 AUDIO
    TITLE "TOEIC LR Kinnojyukugo_07_0517"
    INDEX 01 11:38:72
  TRACK 518 AUDIO
    TITLE "TOEIC LR Kinnojyukugo_07_0518"
    INDEX 01 11:39:37
  TRACK 519 AUDIO
    TITLE "TOEIC LR Kinnojyukugo_07_0519"
    INDEX 01 11:42:19
  TRACK 520 AUDIO
    TITLE "TOEIC LR Kinnojyukugo_07_0520"
    INDEX 01 11:42:43
  TRACK 521 AUDIO
    TITLE "TOEIC LR Kinnojyukugo_07_0521"
    INDEX 01 11:45:23
  TRACK 522 AUDIO
    TITLE "TOEIC LR Kinnojyukugo_07_0522"
    INDEX 01 11:46:23
  TRACK 523 AUDIO
    TITLE "TOEIC LR Kinnojyukugo_07_0523"
    INDEX 01 11:47:65
  TRACK 524 AUDIO
    TITLE "TOEIC LR Kinnojyukugo_07_0524"
    INDEX 01 11:48:28
  TRACK 525 AUDIO
    TITLE "TOEIC LR Kinnojyukugo_07_0525"
    INDEX 01 11:49:45
  TRACK 526 AUDIO
    TITLE "TOEIC LR Kinnojyukugo_07_0526"
    INDEX 01 11:50:11
  TRACK 527 AUDIO
    TITLE "TOEIC LR Kinnojyukugo_07_0527"
    INDEX 01 11:52:61
  TRACK 528 AUDIO
    TITLE "TOEIC LR Kinnojyukugo_07_0528"
    INDEX 01 11:53:29
  TRACK 529 AUDIO
    TITLE "TOEIC LR Kinnojyukugo_07_0529"
    INDEX 01 11:57:09
  TRACK 530 AUDIO
    TITLE "TOEIC LR Kinnojyukugo_07_0530"
    INDEX 01 11:57:33
  TRACK 531 AUDIO
    TITLE "TOEIC LR Kinnojyukugo_07_0531"
    INDEX 01 12:01:15
  TRACK 532 AUDIO
    TITLE "TOEIC LR Kinnojyukugo_07_0532"
    INDEX 01 12:02:14
  TRACK 533 AUDIO
    TITLE "TOEIC LR Kinnojyukugo_07_0533"
    INDEX 01 12:03:35
  TRACK 534 AUDIO
    TITLE "TOEIC LR Kinnojyukugo_07_0534"
    INDEX 01 12:04:03
  TRACK 535 AUDIO
    TITLE "TOEIC LR Kinnojyukugo_07_0535"
    INDEX 01 12:05:32
  TRACK 536 AUDIO
    TITLE "TOEIC LR Kinnojyukugo_07_0536"
    INDEX 01 12:05:71
  TRACK 537 AUDIO
    TITLE "TOEIC LR Kinnojyukugo_07_0537"
    INDEX 01 12:08:52
  TRACK 538 AUDIO
    TITLE "TOEIC LR Kinnojyukugo_07_0538"
    INDEX 01 12:09:14
  TRACK 539 AUDIO
    TITLE "TOEIC LR Kinnojyukugo_07_0539"
    INDEX 01 12:11:52
  TRACK 540 AUDIO
    TITLE "TOEIC LR Kinnojyukugo_07_0540"
    INDEX 01 12:12:03
  TRACK 541 AUDIO
    TITLE "TOEIC LR Kinnojyukugo_07_0541"
    INDEX 01 12:14:39
  TRACK 542 AUDIO
    TITLE "TOEIC LR Kinnojyukugo_07_0542"
    INDEX 01 12:15:40
  TRACK 543 AUDIO
    TITLE "TOEIC LR Kinnojyukugo_07_0543"
    INDEX 01 12:17:06
  TRACK 544 AUDIO
    TITLE "TOEIC LR Kinnojyukugo_07_0544"
    INDEX 01 12:17:43
  TRACK 545 AUDIO
    TITLE "TOEIC LR Kinnojyukugo_07_0545"
    INDEX 01 12:19:75
  TRACK 546 AUDIO
    TITLE "TOEIC LR Kinnojyukugo_07_0546"
    INDEX 01 12:20:45
  TRACK 547 AUDIO
    TITLE "TOEIC LR Kinnojyukugo_07_0547"
    INDEX 01 12:22:05
  TRACK 548 AUDIO
    TITLE "TOEIC LR Kinnojyukugo_07_0548"
    INDEX 01 12:22:42
  TRACK 549 AUDIO
    TITLE "TOEIC LR Kinnojyukugo_07_0549"
    INDEX 01 12:24:57
  TRACK 550 AUDIO
    TITLE "TOEIC LR Kinnojyukugo_07_0550"
    INDEX 01 12:25:07
  TRACK 551 AUDIO
    TITLE "TOEIC LR Kinnojyukugo_07_0551"
    INDEX 01 12:27:22
  TRACK 552 AUDIO
    TITLE "TOEIC LR Kinnojyukugo_07_0552"
    INDEX 01 12:28:23
  TRACK 553 AUDIO
    TITLE "TOEIC LR Kinnojyukugo_07_0553"
    INDEX 01 12:29:56
  TRACK 554 AUDIO
    TITLE "TOEIC LR Kinnojyukugo_07_0554"
    INDEX 01 12:30:18
  TRACK 555 AUDIO
    TITLE "TOEIC LR Kinnojyukugo_07_0555"
    INDEX 01 12:32:01
  TRACK 556 AUDIO
    TITLE "TOEIC LR Kinnojyukugo_07_0556"
    INDEX 01 12:32:41
  TRACK 557 AUDIO
    TITLE "TOEIC LR Kinnojyukugo_07_0557"
    INDEX 01 12:35:41
  TRACK 558 AUDIO
    TITLE "TOEIC LR Kinnojyukugo_07_0558"
    INDEX 01 12:36:05
  TRACK 559 AUDIO
    TITLE "TOEIC LR Kinnojyukugo_07_0559"
    INDEX 01 12:38:35
  TRACK 560 AUDIO
    TITLE "TOEIC LR Kinnojyukugo_07_0560"
    INDEX 01 12:38:59
  TRACK 561 AUDIO
    TITLE "TOEIC LR Kinnojyukugo_07_0561"
    INDEX 01 12:41:16
  TRACK 562 AUDIO
    TITLE "TOEIC LR Kinnojyukugo_07_0562"
    INDEX 01 12:42:16
  TRACK 563 AUDIO
    TITLE "TOEIC LR Kinnojyukugo_07_0563"
    INDEX 01 12:43:72
  TRACK 564 AUDIO
    TITLE "TOEIC LR Kinnojyukugo_07_0564"
    INDEX 01 12:44:32
  TRACK 565 AUDIO
    TITLE "TOEIC LR Kinnojyukugo_07_0565"
    INDEX 01 12:47:68
  TRACK 566 AUDIO
    TITLE "TOEIC LR Kinnojyukugo_07_0566"
    INDEX 01 12:48:32
  TRACK 567 AUDIO
    TITLE "TOEIC LR Kinnojyukugo_07_0567"
    INDEX 01 12:53:02
  TRACK 568 AUDIO
    TITLE "TOEIC LR Kinnojyukugo_07_0568"
    INDEX 01 12:53:41
  TRACK 569 AUDIO
    TITLE "TOEIC LR Kinnojyukugo_07_0569"
    INDEX 01 12:57:50
  TRACK 570 AUDIO
    TITLE "TOEIC LR Kinnojyukugo_07_0570"
    INDEX 01 12:58:01
  TRACK 571 AUDIO
    TITLE "TOEIC LR Kinnojyukugo_07_0571"
    INDEX 01 13:02:10
  TRACK 572 AUDIO
    TITLE "TOEIC LR Kinnojyukugo_07_0572"
    INDEX 01 13:03:10
  TRACK 573 AUDIO
    TITLE "TOEIC LR Kinnojyukugo_07_0573"
    INDEX 01 13:04:17
  TRACK 574 AUDIO
    TITLE "TOEIC LR Kinnojyukugo_07_0574"
    INDEX 01 13:04:50
  TRACK 575 AUDIO
    TITLE "TOEIC LR Kinnojyukugo_07_0575"
    INDEX 01 13:05:69
  TRACK 576 AUDIO
    TITLE "TOEIC LR Kinnojyukugo_07_0576"
    INDEX 01 13:06:32
  TRACK 577 AUDIO
    TITLE "TOEIC LR Kinnojyukugo_07_0577"
    INDEX 01 13:08:31
  TRACK 578 AUDIO
    TITLE "TOEIC LR Kinnojyukugo_07_0578"
    INDEX 01 13:08:68
  TRACK 579 AUDIO
    TITLE "TOEIC LR Kinnojyukugo_07_0579"
    INDEX 01 13:10:45
  TRACK 580 AUDIO
    TITLE "TOEIC LR Kinnojyukugo_07_0580"
    INDEX 01 13:10:75
  TRACK 581 AUDIO
    TITLE "TOEIC LR Kinnojyukugo_07_0581"
    INDEX 01 13:12:50
  TRACK 582 AUDIO
    TITLE "TOEIC LR Kinnojyukugo_07_0582"
    INDEX 01 13:13:53
  TRACK 583 AUDIO
    TITLE "TOEIC LR Kinnojyukugo_07_0583"
    INDEX 01 13:15:23
  TRACK 584 AUDIO
    TITLE "TOEIC LR Kinnojyukugo_07_0584"
    INDEX 01 13:15:70
  TRACK 585 AUDIO
    TITLE "TOEIC LR Kinnojyukugo_07_0585"
    INDEX 01 13:19:15
  TRACK 586 AUDIO
    TITLE "TOEIC LR Kinnojyukugo_07_0586"
    INDEX 01 13:19:52
  TRACK 587 AUDIO
    TITLE "TOEIC LR Kinnojyukugo_07_0587"
    INDEX 01 13:21:63
  TRACK 588 AUDIO
    TITLE "TOEIC LR Kinnojyukugo_07_0588"
    INDEX 01 13:22:25
  TRACK 589 AUDIO
    TITLE "TOEIC LR Kinnojyukugo_07_0589"
    INDEX 01 13:24:73
  TRACK 590 AUDIO
    TITLE "TOEIC LR Kinnojyukugo_07_0590"
    INDEX 01 13:25:23
  TRACK 591 AUDIO
    TITLE "TOEIC LR Kinnojyukugo_07_0591"
    INDEX 01 13:27:69
  TRACK 592 AUDIO
    TITLE "TOEIC LR Kinnojyukugo_07_0592"
    INDEX 01 13:28:73
  TRACK 593 AUDIO
    TITLE "TOEIC LR Kinnojyukugo_07_0593"
    INDEX 01 13:30:03
  TRACK 594 AUDIO
    TITLE "TOEIC LR Kinnojyukugo_07_0594"
    INDEX 01 13:30:42
  TRACK 595 AUDIO
    TITLE "TOEIC LR Kinnojyukugo_07_0595"
    INDEX 01 13:32:04
  TRACK 596 AUDIO
    TITLE "TOEIC LR Kinnojyukugo_07_0596"
    INDEX 01 13:32:41
  TRACK 597 AUDIO
    TITLE "TOEIC LR Kinnojyukugo_07_0597"
    INDEX 01 13:35:55
  TRACK 598 AUDIO
    TITLE "TOEIC LR Kinnojyukugo_07_0598"
    INDEX 01 13:36:17
  TRACK 599 AUDIO
    TITLE "TOEIC LR Kinnojyukugo_07_0599"
    INDEX 01 13:39:10
  TRACK 600 AUDIO
    TITLE "TOEIC LR Kinnojyukugo_07_0600"
    INDEX 01 13:39:29
  TRACK 601 AUDIO
    TITLE "TOEIC LR Kinnojyukugo_07_0601"
    INDEX 01 13:42:22
  TRACK 602 AUDIO
    TITLE "TOEIC LR Kinnojyukugo_07_0602"
    INDEX 01 13:43:17
  TRACK 603 AUDIO
    TITLE "TOEIC LR Kinnojyukugo_07_0603"
    INDEX 01 13:44:34
  TRACK 604 AUDIO
    TITLE "TOEIC LR Kinnojyukugo_07_0604"
    INDEX 01 13:44:73
  TRACK 605 AUDIO
    TITLE "TOEIC LR Kinnojyukugo_07_0605"
    INDEX 01 13:47:74
  TRACK 606 AUDIO
    TITLE "TOEIC LR Kinnojyukugo_07_0606"
    INDEX 01 13:48:42
  TRACK 607 AUDIO
    TITLE "TOEIC LR Kinnojyukugo_07_0607"
    INDEX 01 13:50:70
  TRACK 608 AUDIO
    TITLE "TOEIC LR Kinnojyukugo_07_0608"
    INDEX 01 13:51:34
  TRACK 609 AUDIO
    TITLE "TOEIC LR Kinnojyukugo_07_0609"
    INDEX 01 13:53:74
  TRACK 610 AUDIO
    TITLE "TOEIC LR Kinnojyukugo_07_0610"
    INDEX 01 13:54:27
  TRACK 611 AUDIO
    TITLE "TOEIC LR Kinnojyukugo_07_0611"
    INDEX 01 13:56:67
  TRACK 612 AUDIO
    TITLE "TOEIC LR Kinnojyukugo_07_0612"
    INDEX 01 13:57:68
  TRACK 613 AUDIO
    TITLE "TOEIC LR Kinnojyukugo_07_0613"
    INDEX 01 13:59:22
  TRACK 614 AUDIO
    TITLE "TOEIC LR Kinnojyukugo_07_0614"
    INDEX 01 13:59:63
  TRACK 615 AUDIO
    TITLE "TOEIC LR Kinnojyukugo_07_0615"
    INDEX 01 14:01:11
  TRACK 616 AUDIO
    TITLE "TOEIC LR Kinnojyukugo_07_0616"
    INDEX 01 14:01:54
  TRACK 617 AUDIO
    TITLE "TOEIC LR Kinnojyukugo_07_0617"
    INDEX 01 14:04:21
  TRACK 618 AUDIO
    TITLE "TOEIC LR Kinnojyukugo_07_0618"
    INDEX 01 14:04:60
  TRACK 619 AUDIO
    TITLE "TOEIC LR Kinnojyukugo_07_0619"
    INDEX 01 14:07:31
  TRACK 620 AUDIO
    TITLE "TOEIC LR Kinnojyukugo_07_0620"
    INDEX 01 14:07:55
  TRACK 621 AUDIO
    TITLE "TOEIC LR Kinnojyukugo_07_0621"
    INDEX 01 14:10:26
  TRACK 622 AUDIO
    TITLE "TOEIC LR Kinnojyukugo_07_0622"
    INDEX 01 14:11:29
  TRACK 623 AUDIO
    TITLE "TOEIC LR Kinnojyukugo_07_0623"
    INDEX 01 14:12:46
  TRACK 624 AUDIO
    TITLE "TOEIC LR Kinnojyukugo_07_0624"
    INDEX 01 14:13:05
  TRACK 625 AUDIO
    TITLE "TOEIC LR Kinnojyukugo_07_0625"
    INDEX 01 14:14:26
  TRACK 626 AUDIO
    TITLE "TOEIC LR Kinnojyukugo_07_0626"
    INDEX 01 14:14:69
  TRACK 627 AUDIO
    TITLE "TOEIC LR Kinnojyukugo_07_0627"
    INDEX 01 14:17:04
  TRACK 628 AUDIO
    TITLE "TOEIC LR Kinnojyukugo_07_0628"
    INDEX 01 14:17:46
  TRACK 629 AUDIO
    TITLE "TOEIC LR Kinnojyukugo_07_0629"
    INDEX 01 14:19:39
  TRACK 630 AUDIO
    TITLE "TOEIC LR Kinnojyukugo_07_0630"
    INDEX 01 14:19:62
  TRACK 631 AUDIO
    TITLE "TOEIC LR Kinnojyukugo_07_0631"
    INDEX 01 14:21:57
  TRACK 632 AUDIO
    TITLE "TOEIC LR Kinnojyukugo_07_0632"
    INDEX 01 14:22:55
  TRACK 633 AUDIO
    TITLE "TOEIC LR Kinnojyukugo_07_0633"
    INDEX 01 14:24:02
  TRACK 634 AUDIO
    TITLE "TOEIC LR Kinnojyukugo_07_0634"
    INDEX 01 14:24:42
  TRACK 635 AUDIO
    TITLE "TOEIC LR Kinnojyukugo_07_0635"
    INDEX 01 14:27:24
  TRACK 636 AUDIO
    TITLE "TOEIC LR Kinnojyukugo_07_0636"
    INDEX 01 14:27:64
  TRACK 637 AUDIO
    TITLE "TOEIC LR Kinnojyukugo_07_0637"
    INDEX 01 14:30:17
  TRACK 638 AUDIO
    TITLE "TOEIC LR Kinnojyukugo_07_0638"
    INDEX 01 14:30:62
  TRACK 639 AUDIO
    TITLE "TOEIC LR Kinnojyukugo_07_0639"
    INDEX 01 14:33:17
  TRACK 640 AUDIO
    TITLE "TOEIC LR Kinnojyukugo_07_0640"
    INDEX 01 14:33:43
  TRACK 641 AUDIO
    TITLE "TOEIC LR Kinnojyukugo_07_0641"
    INDEX 01 14:35:71
  TRACK 642 AUDIO
    TITLE "TOEIC LR Kinnojyukugo_07_0642"
    INDEX 01 14:36:72
  TRACK 643 AUDIO
    TITLE "TOEIC LR Kinnojyukugo_07_0643"
    INDEX 01 14:39:14
  TRACK 644 AUDIO
    TITLE "TOEIC LR Kinnojyukugo_07_0644"
    INDEX 01 14:39:53
  TRACK 645 AUDIO
    TITLE "TOEIC LR Kinnojyukugo_07_0645"
    INDEX 01 14:43:55
  TRACK 646 AUDIO
    TITLE "TOEIC LR Kinnojyukugo_07_0646"
    INDEX 01 14:44:21
  TRACK 647 AUDIO
    TITLE "TOEIC LR Kinnojyukugo_07_0647"
    INDEX 01 14:46:33
  TRACK 648 AUDIO
    TITLE "TOEIC LR Kinnojyukugo_07_0648"
    INDEX 01 14:46:73
  TRACK 649 AUDIO
    TITLE "TOEIC LR Kinnojyukugo_07_0649"
    INDEX 01 14:49:36
  TRACK 650 AUDIO
    TITLE "TOEIC LR Kinnojyukugo_07_0650"
    INDEX 01 14:49:59
  TRACK 651 AUDIO
    TITLE "TOEIC LR Kinnojyukugo_07_0651"
    INDEX 01 14:52:22
  TRACK 652 AUDIO
    TITLE "TOEIC LR Kinnojyukugo_07_0652"
    INDEX 01 14:53:22
  TRACK 653 AUDIO
    TITLE "TOEIC LR Kinnojyukugo_07_0653"
    INDEX 01 14:54:35
  TRACK 654 AUDIO
    TITLE "TOEIC LR Kinnojyukugo_07_0654"
    INDEX 01 14:54:72
  TRACK 655 AUDIO
    TITLE "TOEIC LR Kinnojyukugo_07_0655"
    INDEX 01 14:56:04
  TRACK 656 AUDIO
    TITLE "TOEIC LR Kinnojyukugo_07_0656"
    INDEX 01 14:56:46
  TRACK 657 AUDIO
    TITLE "TOEIC LR Kinnojyukugo_07_0657"
    INDEX 01 14:59:30
  TRACK 658 AUDIO
    TITLE "TOEIC LR Kinnojyukugo_07_0658"
    INDEX 01 14:59:69
  TRACK 659 AUDIO
    TITLE "TOEIC LR Kinnojyukugo_07_0659"
    INDEX 01 15:02:48
  TRACK 660 AUDIO
    TITLE "TOEIC LR Kinnojyukugo_07_0660"
    INDEX 01 15:02:74
  TRACK 661 AUDIO
    TITLE "TOEIC LR Kinnojyukugo_07_0661"
    INDEX 01 15:05:50
  TRACK 662 AUDIO
    TITLE "TOEIC LR Kinnojyukugo_07_0662"
    INDEX 01 15:06:50
  TRACK 663 AUDIO
    TITLE "TOEIC LR Kinnojyukugo_07_0663"
    INDEX 01 15:07:47
  TRACK 664 AUDIO
    TITLE "TOEIC LR Kinnojyukugo_07_0664"
    INDEX 01 15:08:15
  TRACK 665 AUDIO
    TITLE "TOEIC LR Kinnojyukugo_07_0665"
    INDEX 01 15:10:44
  TRACK 666 AUDIO
    TITLE "TOEIC LR Kinnojyukugo_07_0666"
    INDEX 01 15:11:06
  TRACK 667 AUDIO
    TITLE "TOEIC LR Kinnojyukugo_07_0667"
    INDEX 01 15:12:74
  TRACK 668 AUDIO
    TITLE "TOEIC LR Kinnojyukugo_07_0668"
    INDEX 01 15:13:38
  TRACK 669 AUDIO
    TITLE "TOEIC LR Kinnojyukugo_07_0669"
    INDEX 01 15:15:25
  TRACK 670 AUDIO
    TITLE "TOEIC LR Kinnojyukugo_07_0670"
    INDEX 01 15:15:53
  TRACK 671 AUDIO
    TITLE "TOEIC LR Kinnojyukugo_07_0671"
    INDEX 01 15:17:40
  TRACK 672 AUDIO
    TITLE "TOEIC LR Kinnojyukugo_07_0672"
    INDEX 01 15:18:43
  TRACK 673 AUDIO
    TITLE "TOEIC LR Kinnojyukugo_07_0673"
    INDEX 01 15:19:72
  TRACK 674 AUDIO
    TITLE "TOEIC LR Kinnojyukugo_07_0674"
    INDEX 01 15:20:34
  TRACK 675 AUDIO
    TITLE "TOEIC LR Kinnojyukugo_07_0675"
    INDEX 01 15:22:10
  TRACK 676 AUDIO
    TITLE "TOEIC LR Kinnojyukugo_07_0676"
    INDEX 01 15:22:51
  TRACK 677 AUDIO
    TITLE "TOEIC LR Kinnojyukugo_07_0677"
    INDEX 01 15:25:39
  TRACK 678 AUDIO
    TITLE "TOEIC LR Kinnojyukugo_07_0678"
    INDEX 01 15:26:04
  TRACK 679 AUDIO
    TITLE "TOEIC LR Kinnojyukugo_07_0679"
    INDEX 01 15:28:38
  TRACK 680 AUDIO
    TITLE "TOEIC LR Kinnojyukugo_07_0680"
    INDEX 01 15:28:63
  TRACK 681 AUDIO
    TITLE "TOEIC LR Kinnojyukugo_07_0681"
    INDEX 01 15:31:22
  TRACK 682 AUDIO
    TITLE "TOEIC LR Kinnojyukugo_07_0682"
    INDEX 01 15:32:22
  TRACK 683 AUDIO
    TITLE "TOEIC LR Kinnojyukugo_07_0683"
    INDEX 01 15:33:58
  TRACK 684 AUDIO
    TITLE "TOEIC LR Kinnojyukugo_07_0684"
    INDEX 01 15:34:25
  TRACK 685 AUDIO
    TITLE "TOEIC LR Kinnojyukugo_07_0685"
    INDEX 01 15:35:51
  TRACK 686 AUDIO
    TITLE "TOEIC LR Kinnojyukugo_07_0686"
    INDEX 01 15:36:16
  TRACK 687 AUDIO
    TITLE "TOEIC LR Kinnojyukugo_07_0687"
    INDEX 01 15:38:54
  TRACK 688 AUDIO
    TITLE "TOEIC LR Kinnojyukugo_07_0688"
    INDEX 01 15:39:16
  TRACK 689 AUDIO
    TITLE "TOEIC LR Kinnojyukugo_07_0689"
    INDEX 01 15:42:10
  TRACK 690 AUDIO
    TITLE "TOEIC LR Kinnojyukugo_07_0690"
    INDEX 01 15:42:36
  TRACK 691 AUDIO
    TITLE "TOEIC LR Kinnojyukugo_07_0691"
    INDEX 01 15:45:30
  TRACK 692 AUDIO
    TITLE "TOEIC LR Kinnojyukugo_07_0692"
    INDEX 01 15:46:30
  TRACK 693 AUDIO
    TITLE "TOEIC LR Kinnojyukugo_07_0693"
    INDEX 01 15:47:51
  TRACK 694 AUDIO
    TITLE "TOEIC LR Kinnojyukugo_07_0694"
    INDEX 01 15:48:13
  TRACK 695 AUDIO
    TITLE "TOEIC LR Kinnojyukugo_07_0695"
    INDEX 01 15:51:15
  TRACK 696 AUDIO
    TITLE "TOEIC LR Kinnojyukugo_07_0696"
    INDEX 01 15:51:52
  TRACK 697 AUDIO
    TITLE "TOEIC LR Kinnojyukugo_07_0697"
    INDEX 01 15:54:12
  TRACK 698 AUDIO
    TITLE "TOEIC LR Kinnojyukugo_07_0698"
    INDEX 01 15:54:51
  TRACK 699 AUDIO
    TITLE "TOEIC LR Kinnojyukugo_07_0699"
    INDEX 01 15:57:10
  TRACK 700 AUDIO
    TITLE "TOEIC LR Kinnojyukugo_07_0700"
    INDEX 01 15:57:35
  TRACK 701 AUDIO
    TITLE "TOEIC LR Kinnojyukugo_07_0701"
    INDEX 01 15:59:70
  TRACK 702 AUDIO
    TITLE "TOEIC LR Kinnojyukugo_07_0702"
    INDEX 01 16:00:71
  TRACK 703 AUDIO
    TITLE "TOEIC LR Kinnojyukugo_07_0703"
    INDEX 01 16:03:32
  TRACK 704 AUDIO
    TITLE "TOEIC LR Kinnojyukugo_07_0704"
    INDEX 01 16:03:65
  TRACK 705 AUDIO
    TITLE "TOEIC LR Kinnojyukugo_07_0705"
    INDEX 01 16:06:13
  TRACK 706 AUDIO
    TITLE "TOEIC LR Kinnojyukugo_07_0706"
    INDEX 01 16:06:50
  TRACK 707 AUDIO
    TITLE "TOEIC LR Kinnojyukugo_07_0707"
    INDEX 01 16:10:42
  TRACK 708 AUDIO
    TITLE "TOEIC LR Kinnojyukugo_07_0708"
    INDEX 01 16:11:04
  TRACK 709 AUDIO
    TITLE "TOEIC LR Kinnojyukugo_07_0709"
    INDEX 01 16:15:06
  TRACK 710 AUDIO
    TITLE "TOEIC LR Kinnojyukugo_07_0710"
    INDEX 01 16:15:29
  TRACK 711 AUDIO
    TITLE "TOEIC LR Kinnojyukugo_07_0711"
    INDEX 01 16:19:31
  TRACK 712 AUDIO
    TITLE "TOEIC LR Kinnojyukugo_07_0712"
    INDEX 01 16:20:31
  TRACK 713 AUDIO
    TITLE "TOEIC LR Kinnojyukugo_07_0713"
    INDEX 01 16:22:51
  TRACK 714 AUDIO
    TITLE "TOEIC LR Kinnojyukugo_07_0714"
    INDEX 01 16:23:13
  TRACK 715 AUDIO
    TITLE "TOEIC LR Kinnojyukugo_07_0715"
    INDEX 01 16:25:20
  TRACK 716 AUDIO
    TITLE "TOEIC LR Kinnojyukugo_07_0716"
    INDEX 01 16:25:57
  TRACK 717 AUDIO
    TITLE "TOEIC LR Kinnojyukugo_07_0717"
    INDEX 01 16:27:56
  TRACK 718 AUDIO
    TITLE "TOEIC LR Kinnojyukugo_07_0718"
    INDEX 01 16:28:20
  TRACK 719 AUDIO
    TITLE "TOEIC LR Kinnojyukugo_07_0719"
    INDEX 01 16:30:07
  TRACK 720 AUDIO
    TITLE "TOEIC LR Kinnojyukugo_07_0720"
    INDEX 01 16:30:33
  TRACK 721 AUDIO
    TITLE "TOEIC LR Kinnojyukugo_07_0721"
    INDEX 01 16:32:20
  TRACK 722 AUDIO
    TITLE "TOEIC LR Kinnojyukugo_07_0722"
    INDEX 01 16:33:21
  TRACK 723 AUDIO
    TITLE "TOEIC LR Kinnojyukugo_07_0723"
    INDEX 01 16:34:52
  TRACK 724 AUDIO
    TITLE "TOEIC LR Kinnojyukugo_07_0724"
    INDEX 01 16:35:13
  TRACK 725 AUDIO
    TITLE "TOEIC LR Kinnojyukugo_07_0725"
    INDEX 01 16:36:18
  TRACK 726 AUDIO
    TITLE "TOEIC LR Kinnojyukugo_07_0726"
    INDEX 01 16:36:57
  TRACK 727 AUDIO
    TITLE "TOEIC LR Kinnojyukugo_07_0727"
    INDEX 01 16:40:04
  TRACK 728 AUDIO
    TITLE "TOEIC LR Kinnojyukugo_07_0728"
    INDEX 01 16:40:39
  TRACK 729 AUDIO
    TITLE "TOEIC LR Kinnojyukugo_07_0729"
    INDEX 01 16:43:32
  TRACK 730 AUDIO
    TITLE "TOEIC LR Kinnojyukugo_07_0730"
    INDEX 01 16:43:53
  TRACK 731 AUDIO
    TITLE "TOEIC LR Kinnojyukugo_07_0731"
    INDEX 01 16:46:46
  TRACK 732 AUDIO
    TITLE "TOEIC LR Kinnojyukugo_07_0732"
    INDEX 01 16:47:49
  TRACK 733 AUDIO
    TITLE "TOEIC LR Kinnojyukugo_07_0733"
    INDEX 01 16:49:13
  TRACK 734 AUDIO
    TITLE "TOEIC LR Kinnojyukugo_07_0734"
    INDEX 01 16:49:52
  TRACK 735 AUDIO
    TITLE "TOEIC LR Kinnojyukugo_07_0735"
    INDEX 01 16:51:21
  TRACK 736 AUDIO
    TITLE "TOEIC LR Kinnojyukugo_07_0736"
    INDEX 01 16:51:61
  TRACK 737 AUDIO
    TITLE "TOEIC LR Kinnojyukugo_07_0737"
    INDEX 01 16:53:63
  TRACK 738 AUDIO
    TITLE "TOEIC LR Kinnojyukugo_07_0738"
    INDEX 01 16:54:28
  TRACK 739 AUDIO
    TITLE "TOEIC LR Kinnojyukugo_07_0739"
    INDEX 01 16:56:36
  TRACK 740 AUDIO
    TITLE "TOEIC LR Kinnojyukugo_07_0740"
    INDEX 01 16:56:60
  TRACK 741 AUDIO
    TITLE "TOEIC LR Kinnojyukugo_07_0741"
    INDEX 01 16:58:66
  TRACK 742 AUDIO
    TITLE "TOEIC LR Kinnojyukugo_07_0742"
    INDEX 01 16:59:68
  TRACK 743 AUDIO
    TITLE "TOEIC LR Kinnojyukugo_07_0743"
    INDEX 01 17:01:16
  TRACK 744 AUDIO
    TITLE "TOEIC LR Kinnojyukugo_07_0744"
    INDEX 01 17:01:53
  TRACK 745 AUDIO
    TITLE "TOEIC LR Kinnojyukugo_07_0745"
    INDEX 01 17:04:40
  TRACK 746 AUDIO
    TITLE "TOEIC LR Kinnojyukugo_07_0746"
    INDEX 01 17:05:04
  TRACK 747 AUDIO
    TITLE "TOEIC LR Kinnojyukugo_07_0747"
    INDEX 01 17:08:45
  TRACK 748 AUDIO
    TITLE "TOEIC LR Kinnojyukugo_07_0748"
    INDEX 01 17:09:09
  TRACK 749 AUDIO
    TITLE "TOEIC LR Kinnojyukugo_07_0749"
    INDEX 01 17:11:44
  TRACK 750 AUDIO
    TITLE "TOEIC LR Kinnojyukugo_07_0750"
    INDEX 01 17:12:06
  TRACK 751 AUDIO
    TITLE "TOEIC LR Kinnojyukugo_07_0751"
    INDEX 01 17:14:38
  TRACK 752 AUDIO
    TITLE "TOEIC LR Kinnojyukugo_07_0752"
    INDEX 01 17:15:49
  TRACK 753 AUDIO
    TITLE "TOEIC LR Kinnojyukugo_07_0753"
    INDEX 01 17:16:70
  TRACK 754 AUDIO
    TITLE "TOEIC LR Kinnojyukugo_07_0754"
    INDEX 01 17:17:31
  TRACK 755 AUDIO
    TITLE "TOEIC LR Kinnojyukugo_07_0755"
    INDEX 01 17:18:57
  TRACK 756 AUDIO
    TITLE "TOEIC LR Kinnojyukugo_07_0756"
    INDEX 01 17:19:24
  TRACK 757 AUDIO
    TITLE "TOEIC LR Kinnojyukugo_07_0757"
    INDEX 01 17:21:50
  TRACK 758 AUDIO
    TITLE "TOEIC LR Kinnojyukugo_07_0758"
    INDEX 01 17:22:14
  TRACK 759 AUDIO
    TITLE "TOEIC LR Kinnojyukugo_07_0759"
    INDEX 01 17:24:68
  TRACK 760 AUDIO
    TITLE "TOEIC LR Kinnojyukugo_07_0760"
    INDEX 01 17:25:10
  TRACK 761 AUDIO
    TITLE "TOEIC LR Kinnojyukugo_07_0761"
    INDEX 01 17:27:64
  TRACK 762 AUDIO
    TITLE "TOEIC LR Kinnojyukugo_07_0762"
    INDEX 01 17:28:66
  TRACK 763 AUDIO
    TITLE "TOEIC LR Kinnojyukugo_07_0763"
    INDEX 01 17:30:19
  TRACK 764 AUDIO
    TITLE "TOEIC LR Kinnojyukugo_07_0764"
    INDEX 01 17:30:55
  TRACK 765 AUDIO
    TITLE "TOEIC LR Kinnojyukugo_07_0765"
    INDEX 01 17:32:14
  TRACK 766 AUDIO
    TITLE "TOEIC LR Kinnojyukugo_07_0766"
    INDEX 01 17:32:52
  TRACK 767 AUDIO
    TITLE "TOEIC LR Kinnojyukugo_07_0767"
    INDEX 01 17:35:11
  TRACK 768 AUDIO
    TITLE "TOEIC LR Kinnojyukugo_07_0768"
    INDEX 01 17:35:48
  TRACK 769 AUDIO
    TITLE "TOEIC LR Kinnojyukugo_07_0769"
    INDEX 01 17:37:37
  TRACK 770 AUDIO
    TITLE "TOEIC LR Kinnojyukugo_07_0770"
    INDEX 01 17:37:57
  TRACK 771 AUDIO
    TITLE "TOEIC LR Kinnojyukugo_07_0771"
    INDEX 01 17:39:46
  TRACK 772 AUDIO
    TITLE "TOEIC LR Kinnojyukugo_07_0772"
    INDEX 01 17:40:43
  TRACK 773 AUDIO
    TITLE "TOEIC LR Kinnojyukugo_07_0773"
    INDEX 01 17:41:53
  TRACK 774 AUDIO
    TITLE "TOEIC LR Kinnojyukugo_07_0774"
    INDEX 01 17:42:15
  TRACK 775 AUDIO
    TITLE "TOEIC LR Kinnojyukugo_07_0775"
    INDEX 01 17:43:48
  TRACK 776 AUDIO
    TITLE "TOEIC LR Kinnojyukugo_07_0776"
    INDEX 01 17:44:10
  TRACK 777 AUDIO
    TITLE "TOEIC LR Kinnojyukugo_07_0777"
    INDEX 01 17:45:70
  TRACK 778 AUDIO
    TITLE "TOEIC LR Kinnojyukugo_07_0778"
    INDEX 01 17:46:32
  TRACK 779 AUDIO
    TITLE "TOEIC LR Kinnojyukugo_07_0779"
    INDEX 01 17:48:13
  TRACK 780 AUDIO
    TITLE "TOEIC LR Kinnojyukugo_07_0780"
    INDEX 01 17:48:41
  TRACK 781 AUDIO
    TITLE "TOEIC LR Kinnojyukugo_07_0781"
    INDEX 01 17:50:12
  TRACK 782 AUDIO
    TITLE "TOEIC LR Kinnojyukugo_07_0782"
    INDEX 01 17:51:24
  TRACK 783 AUDIO
    TITLE "TOEIC LR Kinnojyukugo_07_0783"
    INDEX 01 17:53:26
  TRACK 784 AUDIO
    TITLE "TOEIC LR Kinnojyukugo_07_0784"
    INDEX 01 17:53:62
  TRACK 785 AUDIO
    TITLE "TOEIC LR Kinnojyukugo_07_0785"
    INDEX 01 17:55:72
  TRACK 786 AUDIO
    TITLE "TOEIC LR Kinnojyukugo_07_0786"
    INDEX 01 17:56:33
  TRACK 787 AUDIO
    TITLE "TOEIC LR Kinnojyukugo_07_0787"
    INDEX 01 18:00:07
  TRACK 788 AUDIO
    TITLE "TOEIC LR Kinnojyukugo_07_0788"
    INDEX 01 18:00:52
  TRACK 789 AUDIO
    TITLE "TOEIC LR Kinnojyukugo_07_0789"
    INDEX 01 18:03:72
  TRACK 790 AUDIO
    TITLE "TOEIC LR Kinnojyukugo_07_0790"
    INDEX 01 18:04:32
  TRACK 791 AUDIO
    TITLE "TOEIC LR Kinnojyukugo_07_0791"
    INDEX 01 18:07:48
  TRACK 792 AUDIO
    TITLE "TOEIC LR Kinnojyukugo_07_0792"
    INDEX 01 18:08:51
  TRACK 793 AUDIO
    TITLE "TOEIC LR Kinnojyukugo_07_0793"
    INDEX 01 18:10:39
  TRACK 794 AUDIO
    TITLE "TOEIC LR Kinnojyukugo_07_0794"
    INDEX 01 18:11:03
  TRACK 795 AUDIO
    TITLE "TOEIC LR Kinnojyukugo_07_0795"
    INDEX 01 18:13:19
  TRACK 796 AUDIO
    TITLE "TOEIC LR Kinnojyukugo_07_0796"
    INDEX 01 18:13:58
  TRACK 797 AUDIO
    TITLE "TOEIC LR Kinnojyukugo_07_0797"
    INDEX 01 18:17:64
  TRACK 798 AUDIO
    TITLE "TOEIC LR Kinnojyukugo_07_0798"
    INDEX 01 18:18:26
  TRACK 799 AUDIO
    TITLE "TOEIC LR Kinnojyukugo_07_0799"
    INDEX 01 18:21:50
  TRACK 800 AUDIO
    TITLE "TOEIC LR Kinnojyukugo_07_0800"
    INDEX 01 18:22:03
  TRACK 801 AUDIO
    TITLE "TOEIC LR Kinnojyukugo_07_0801"
    INDEX 01 18:25:22
  TRACK 802 AUDIO
    TITLE "TOEIC LR Kinnojyukugo_07_0802"
    INDEX 01 18:26:22
  TRACK 803 AUDIO
    TITLE "TOEIC LR Kinnojyukugo_07_0803"
    INDEX 01 18:27:63
  TRACK 804 AUDIO
    TITLE "TOEIC LR Kinnojyukugo_07_0804"
    INDEX 01 18:28:27
  TRACK 805 AUDIO
    TITLE "TOEIC LR Kinnojyukugo_07_0805"
    INDEX 01 18:31:27
  TRACK 806 AUDIO
    TITLE "TOEIC LR Kinnojyukugo_07_0806"
    INDEX 01 18:31:72
  TRACK 807 AUDIO
    TITLE "TOEIC LR Kinnojyukugo_07_0807"
    INDEX 01 18:33:63
  TRACK 808 AUDIO
    TITLE "TOEIC LR Kinnojyukugo_07_0808"
    INDEX 01 18:34:27
  TRACK 809 AUDIO
    TITLE "TOEIC LR Kinnojyukugo_07_0809"
    INDEX 01 18:36:30
  TRACK 810 AUDIO
    TITLE "TOEIC LR Kinnojyukugo_07_0810"
    INDEX 01 18:36:56
  TRACK 811 AUDIO
    TITLE "TOEIC LR Kinnojyukugo_07_0811"
    INDEX 01 18:38:56
  TRACK 812 AUDIO
    TITLE "TOEIC LR Kinnojyukugo_07_0812"
    INDEX 01 18:39:58
  TRACK 813 AUDIO
    TITLE "TOEIC LR Kinnojyukugo_07_0813"
    INDEX 01 18:40:73
  TRACK 814 AUDIO
    TITLE "TOEIC LR Kinnojyukugo_07_0814"
    INDEX 01 18:41:37
  TRACK 815 AUDIO
    TITLE "TOEIC LR Kinnojyukugo_07_0815"
    INDEX 01 18:45:11
  TRACK 816 AUDIO
    TITLE "TOEIC LR Kinnojyukugo_07_0816"
    INDEX 01 18:45:51
  TRACK 817 AUDIO
    TITLE "TOEIC LR Kinnojyukugo_07_0817"
    INDEX 01 18:48:22
  TRACK 818 AUDIO
    TITLE "TOEIC LR Kinnojyukugo_07_0818"
    INDEX 01 18:48:65
  TRACK 819 AUDIO
    TITLE "TOEIC LR Kinnojyukugo_07_0819"
    INDEX 01 18:50:75
  TRACK 820 AUDIO
    TITLE "TOEIC LR Kinnojyukugo_07_0820"
    INDEX 01 18:51:26
  TRACK 821 AUDIO
    TITLE "TOEIC LR Kinnojyukugo_07_0821"
    INDEX 01 18:53:34
  TRACK 822 AUDIO
    TITLE "TOEIC LR Kinnojyukugo_07_0822"
    INDEX 01 18:54:36
  TRACK 823 AUDIO
    TITLE "TOEIC LR Kinnojyukugo_07_0823"
    INDEX 01 18:56:01
  TRACK 824 AUDIO
    TITLE "TOEIC LR Kinnojyukugo_07_0824"
    INDEX 01 18:56:49
  TRACK 825 AUDIO
    TITLE "TOEIC LR Kinnojyukugo_07_0825"
    INDEX 01 18:58:26
  TRACK 826 AUDIO
    TITLE "TOEIC LR Kinnojyukugo_07_0826"
    INDEX 01 18:58:69
  TRACK 827 AUDIO
    TITLE "TOEIC LR Kinnojyukugo_07_0827"
    INDEX 01 19:02:33
  TRACK 828 AUDIO
    TITLE "TOEIC LR Kinnojyukugo_07_0828"
    INDEX 01 19:02:73
  TRACK 829 AUDIO
    TITLE "TOEIC LR Kinnojyukugo_07_0829"
    INDEX 01 19:06:02
  TRACK 830 AUDIO
    TITLE "TOEIC LR Kinnojyukugo_07_0830"
    INDEX 01 19:06:27
  TRACK 831 AUDIO
    TITLE "TOEIC LR Kinnojyukugo_07_0831"
    INDEX 01 19:09:32
  TRACK 832 AUDIO
    TITLE "TOEIC LR Kinnojyukugo_07_0832"
    INDEX 01 19:10:33
  TRACK 833 AUDIO
    TITLE "TOEIC LR Kinnojyukugo_07_0833"
    INDEX 01 19:12:16
  TRACK 834 AUDIO
    TITLE "TOEIC LR Kinnojyukugo_07_0834"
    INDEX 01 19:12:59
  TRACK 835 AUDIO
    TITLE "TOEIC LR Kinnojyukugo_07_0835"
    INDEX 01 19:14:25
  TRACK 836 AUDIO
    TITLE "TOEIC LR Kinnojyukugo_07_0836"
    INDEX 01 19:14:62
  TRACK 837 AUDIO
    TITLE "TOEIC LR Kinnojyukugo_07_0837"
    INDEX 01 19:17:43
  TRACK 838 AUDIO
    TITLE "TOEIC LR Kinnojyukugo_07_0838"
    INDEX 01 19:18:05
  TRACK 839 AUDIO
    TITLE "TOEIC LR Kinnojyukugo_07_0839"
    INDEX 01 19:20:67
  TRACK 840 AUDIO
    TITLE "TOEIC LR Kinnojyukugo_07_0840"
    INDEX 01 19:21:15
  TRACK 841 AUDIO
    TITLE "TOEIC LR Kinnojyukugo_07_0841"
    INDEX 01 19:23:75
  TRACK 842 AUDIO
    TITLE "TOEIC LR Kinnojyukugo_07_0842"
    INDEX 01 19:24:74
  TRACK 843 AUDIO
    TITLE "TOEIC LR Kinnojyukugo_07_0843"
    INDEX 01 19:26:44
  TRACK 844 AUDIO
    TITLE "TOEIC LR Kinnojyukugo_07_0844"
    INDEX 01 19:27:06
  TRACK 845 AUDIO
    TITLE "TOEIC LR Kinnojyukugo_07_0845"
    INDEX 01 19:29:40
  TRACK 846 AUDIO
    TITLE "TOEIC LR Kinnojyukugo_07_0846"
    INDEX 01 19:30:12
  TRACK 847 AUDIO
    TITLE "TOEIC LR Kinnojyukugo_07_0847"
    INDEX 01 19:33:16
  TRACK 848 AUDIO
    TITLE "TOEIC LR Kinnojyukugo_07_0848"
    INDEX 01 19:33:57
  TRACK 849 AUDIO
    TITLE "TOEIC LR Kinnojyukugo_07_0849"
    INDEX 01 19:37:18
  TRACK 850 AUDIO
    TITLE "TOEIC LR Kinnojyukugo_07_0850"
    INDEX 01 19:37:42
  TRACK 851 AUDIO
    TITLE "TOEIC LR Kinnojyukugo_07_0851"
    INDEX 01 19:41:06
  TRACK 852 AUDIO
    TITLE "TOEIC LR Kinnojyukugo_07_0852"
    INDEX 01 19:42:06
  TRACK 853 AUDIO
    TITLE "TOEIC LR Kinnojyukugo_07_0853"
    INDEX 01 19:43:28
  TRACK 854 AUDIO
    TITLE "TOEIC LR Kinnojyukugo_07_0854"
    INDEX 01 19:43:72
  TRACK 855 AUDIO
    TITLE "TOEIC LR Kinnojyukugo_07_0855"
    INDEX 01 19:44:59
  TRACK 856 AUDIO
    TITLE "TOEIC LR Kinnojyukugo_07_0856"
    INDEX 01 19:45:23
  TRACK 857 AUDIO
    TITLE "TOEIC LR Kinnojyukugo_07_0857"
    INDEX 01 19:48:43
  TRACK 858 AUDIO
    TITLE "TOEIC LR Kinnojyukugo_07_0858"
    INDEX 01 19:49:08
  TRACK 859 AUDIO
    TITLE "TOEIC LR Kinnojyukugo_07_0859"
    INDEX 01 19:52:16
  TRACK 860 AUDIO
    TITLE "TOEIC LR Kinnojyukugo_07_0860"
    INDEX 01 19:52:39
  TRACK 861 AUDIO
    TITLE "TOEIC LR Kinnojyukugo_07_0861"
    INDEX 01 19:55:49
  TRACK 862 AUDIO
    TITLE "TOEIC LR Kinnojyukugo_07_0862"
    INDEX 01 19:56:49
  TRACK 863 AUDIO
    TITLE "TOEIC LR Kinnojyukugo_07_0863"
    INDEX 01 19:58:10
  TRACK 864 AUDIO
    TITLE "TOEIC LR Kinnojyukugo_07_0864"
    INDEX 01 19:58:52
  TRACK 865 AUDIO
    TITLE "TOEIC LR Kinnojyukugo_07_0865"
    INDEX 01 19:59:63
  TRACK 866 AUDIO
    TITLE "TOEIC LR Kinnojyukugo_07_0866"
    INDEX 01 20:00:27
  TRACK 867 AUDIO
    TITLE "TOEIC LR Kinnojyukugo_07_0867"
    INDEX 01 20:02:36
  TRACK 868 AUDIO
    TITLE "TOEIC LR Kinnojyukugo_07_0868"
    INDEX 01 20:02:73
  TRACK 869 AUDIO
    TITLE "TOEIC LR Kinnojyukugo_07_0869"
    INDEX 01 20:05:16
  TRACK 870 AUDIO
    TITLE "TOEIC LR Kinnojyukugo_07_0870"
    INDEX 01 20:05:40
  TRACK 871 AUDIO
    TITLE "TOEIC LR Kinnojyukugo_07_0871"
    INDEX 01 20:07:58
  TRACK 872 AUDIO
    TITLE "TOEIC LR Kinnojyukugo_07_0872"
    INDEX 01 20:08:60
  TRACK 873 AUDIO
    TITLE "TOEIC LR Kinnojyukugo_07_0873"
    INDEX 01 20:10:12
  TRACK 874 AUDIO
    TITLE "TOEIC LR Kinnojyukugo_07_0874"
    INDEX 01 20:10:51
  TRACK 875 AUDIO
    TITLE "TOEIC LR Kinnojyukugo_07_0875"
    INDEX 01 20:12:16
  TRACK 876 AUDIO
    TITLE "TOEIC LR Kinnojyukugo_07_0876"
    INDEX 01 20:12:63
  TRACK 877 AUDIO
    TITLE "TOEIC LR Kinnojyukugo_07_0877"
    INDEX 01 20:15:72
  TRACK 878 AUDIO
    TITLE "TOEIC LR Kinnojyukugo_07_0878"
    INDEX 01 20:16:36
  TRACK 879 AUDIO
    TITLE "TOEIC LR Kinnojyukugo_07_0879"
    INDEX 01 20:19:15
  TRACK 880 AUDIO
    TITLE "TOEIC LR Kinnojyukugo_07_0880"
    INDEX 01 20:19:40
  TRACK 881 AUDIO
    TITLE "TOEIC LR Kinnojyukugo_07_0881"
    INDEX 01 20:22:21
  TRACK 882 AUDIO
    TITLE "TOEIC LR Kinnojyukugo_07_0882"
    INDEX 01 20:23:20
  TRACK 883 AUDIO
    TITLE "TOEIC LR Kinnojyukugo_07_0883"
    INDEX 01 20:24:37
  TRACK 884 AUDIO
    TITLE "TOEIC LR Kinnojyukugo_07_0884"
    INDEX 01 20:24:74
  TRACK 885 AUDIO
    TITLE "TOEIC LR Kinnojyukugo_07_0885"
    INDEX 01 20:28:43
  TRACK 886 AUDIO
    TITLE "TOEIC LR Kinnojyukugo_07_0886"
    INDEX 01 20:29:05
  TRACK 887 AUDIO
    TITLE "TOEIC LR Kinnojyukugo_07_0887"
    INDEX 01 20:30:69
  TRACK 888 AUDIO
    TITLE "TOEIC LR Kinnojyukugo_07_0888"
    INDEX 01 20:31:33
  TRACK 889 AUDIO
    TITLE "TOEIC LR Kinnojyukugo_07_0889"
    INDEX 01 20:33:26
  TRACK 890 AUDIO
    TITLE "TOEIC LR Kinnojyukugo_07_0890"
    INDEX 01 20:33:52
  TRACK 891 AUDIO
    TITLE "TOEIC LR Kinnojyukugo_07_0891"
    INDEX 01 20:35:47
  TRACK 892 AUDIO
    TITLE "TOEIC LR Kinnojyukugo_07_0892"
    INDEX 01 20:36:48
  TRACK 893 AUDIO
    TITLE "TOEIC LR Kinnojyukugo_07_0893"
    INDEX 01 20:37:61
  TRACK 894 AUDIO
    TITLE "TOEIC LR Kinnojyukugo_07_0894"
    INDEX 01 20:38:26
  TRACK 895 AUDIO
    TITLE "TOEIC LR Kinnojyukugo_07_0895"
    INDEX 01 20:40:60
  TRACK 896 AUDIO
    TITLE "TOEIC LR Kinnojyukugo_07_0896"
    INDEX 01 20:41:26
  TRACK 897 AUDIO
    TITLE "TOEIC LR Kinnojyukugo_07_0897"
    INDEX 01 20:44:22
  TRACK 898 AUDIO
    TITLE "TOEIC LR Kinnojyukugo_07_0898"
    INDEX 01 20:44:60
  TRACK 899 AUDIO
    TITLE "TOEIC LR Kinnojyukugo_07_0899"
    INDEX 01 20:47:28
  TRACK 900 AUDIO
    TITLE "TOEIC LR Kinnojyukugo_07_0900"
    INDEX 01 20:47:56
  TRACK 901 AUDIO
    TITLE "TOEIC LR Kinnojyukugo_07_0901"
    INDEX 01 20:50:25
  TRACK 902 AUDIO
    TITLE "TOEIC LR Kinnojyukugo_07_0902"
    INDEX 01 20:51:24
  TRACK 903 AUDIO
    TITLE "TOEIC LR Kinnojyukugo_07_0903"
    INDEX 01 20:52:59
  TRACK 904 AUDIO
    TITLE "TOEIC LR Kinnojyukugo_07_0904"
    INDEX 01 20:53:27
  TRACK 905 AUDIO
    TITLE "TOEIC LR Kinnojyukugo_07_0905"
    INDEX 01 20:54:70
  TRACK 906 AUDIO
    TITLE "TOEIC LR Kinnojyukugo_07_0906"
    INDEX 01 20:55:32
  TRACK 907 AUDIO
    TITLE "TOEIC LR Kinnojyukugo_07_0907"
    INDEX 01 20:58:71
  TRACK 908 AUDIO
    TITLE "TOEIC LR Kinnojyukugo_07_0908"
    INDEX 01 20:59:36
  TRACK 909 AUDIO
    TITLE "TOEIC LR Kinnojyukugo_07_0909"
    INDEX 01 21:02:28
  TRACK 910 AUDIO
    TITLE "TOEIC LR Kinnojyukugo_07_0910"
    INDEX 01 21:02:55
  TRACK 911 AUDIO
    TITLE "TOEIC LR Kinnojyukugo_07_0911"
    INDEX 01 21:05:48
  TRACK 912 AUDIO
    TITLE "TOEIC LR Kinnojyukugo_07_0912"
    INDEX 01 21:06:51
  TRACK 913 AUDIO
    TITLE "TOEIC LR Kinnojyukugo_07_0913"
    INDEX 01 21:08:03
  TRACK 914 AUDIO
    TITLE "TOEIC LR Kinnojyukugo_07_0914"
    INDEX 01 21:08:42
  TRACK 915 AUDIO
    TITLE "TOEIC LR Kinnojyukugo_07_0915"
    INDEX 01 21:10:10
  TRACK 916 AUDIO
    TITLE "TOEIC LR Kinnojyukugo_07_0916"
    INDEX 01 21:10:47
  TRACK 917 AUDIO
    TITLE "TOEIC LR Kinnojyukugo_07_0917"
    INDEX 01 21:14:31
  TRACK 918 AUDIO
    TITLE "TOEIC LR Kinnojyukugo_07_0918"
    INDEX 01 21:14:70
  TRACK 919 AUDIO
    TITLE "TOEIC LR Kinnojyukugo_07_0919"
    INDEX 01 21:18:39
  TRACK 920 AUDIO
    TITLE "TOEIC LR Kinnojyukugo_07_0920"
    INDEX 01 21:18:62
  TRACK 921 AUDIO
    TITLE "TOEIC LR Kinnojyukugo_07_0921"
    INDEX 01 21:22:31
  TRACK 922 AUDIO
    TITLE "TOEIC LR Kinnojyukugo_07_0922"
    INDEX 01 21:23:30
  TRACK 923 AUDIO
    TITLE "TOEIC LR Kinnojyukugo_07_0923"
    INDEX 01 21:24:65
  TRACK 924 AUDIO
    TITLE "TOEIC LR Kinnojyukugo_07_0924"
    INDEX 01 21:25:27
  TRACK 925 AUDIO
    TITLE "TOEIC LR Kinnojyukugo_07_0925"
    INDEX 01 21:28:12
  TRACK 926 AUDIO
    TITLE "TOEIC LR Kinnojyukugo_07_0926"
    INDEX 01 21:28:65
  TRACK 927 AUDIO
    TITLE "TOEIC LR Kinnojyukugo_07_0927"
    INDEX 01 21:32:62
  TRACK 928 AUDIO
    TITLE "TOEIC LR Kinnojyukugo_07_0928"
    INDEX 01 21:33:29
  TRACK 929 AUDIO
    TITLE "TOEIC LR Kinnojyukugo_07_0929"
    INDEX 01 21:37:22
  TRACK 930 AUDIO
    TITLE "TOEIC LR Kinnojyukugo_07_0930"
    INDEX 01 21:37:50
  TRACK 931 AUDIO
    TITLE "TOEIC LR Kinnojyukugo_07_0931"
    INDEX 01 21:41:44
  TRACK 932 AUDIO
    TITLE "TOEIC LR Kinnojyukugo_07_0932"
    INDEX 01 21:42:47
  TRACK 933 AUDIO
    TITLE "TOEIC LR Kinnojyukugo_07_0933"
    INDEX 01 21:44:24
  TRACK 934 AUDIO
    TITLE "TOEIC LR Kinnojyukugo_07_0934"
    INDEX 01 21:44:64
  TRACK 935 AUDIO
    TITLE "TOEIC LR Kinnojyukugo_07_0935"
    INDEX 01 21:47:42
  TRACK 936 AUDIO
    TITLE "TOEIC LR Kinnojyukugo_07_0936"
    INDEX 01 21:48:07
  TRACK 937 AUDIO
    TITLE "TOEIC LR Kinnojyukugo_07_0937"
    INDEX 01 21:50:68
  TRACK 938 AUDIO
    TITLE "TOEIC LR Kinnojyukugo_07_0938"
    INDEX 01 21:51:30
  TRACK 939 AUDIO
    TITLE "TOEIC LR Kinnojyukugo_07_0939"
    INDEX 01 21:53:63
  TRACK 940 AUDIO
    TITLE "TOEIC LR Kinnojyukugo_07_0940"
    INDEX 01 21:54:13
  TRACK 941 AUDIO
    TITLE "TOEIC LR Kinnojyukugo_07_0941"
    INDEX 01 21:56:45
  TRACK 942 AUDIO
    TITLE "TOEIC LR Kinnojyukugo_07_0942"
    INDEX 01 21:57:45
  TRACK 943 AUDIO
    TITLE "TOEIC LR Kinnojyukugo_07_0943"
    INDEX 01 21:58:62
  TRACK 944 AUDIO
    TITLE "TOEIC LR Kinnojyukugo_07_0944"
    INDEX 01 21:59:32
  TRACK 945 AUDIO
    TITLE "TOEIC LR Kinnojyukugo_07_0945"
    INDEX 01 22:01:35
  TRACK 946 AUDIO
    TITLE "TOEIC LR Kinnojyukugo_07_0946"
    INDEX 01 22:01:68
  TRACK 947 AUDIO
    TITLE "TOEIC LR Kinnojyukugo_07_0947"
    INDEX 01 22:04:41
  TRACK 948 AUDIO
    TITLE "TOEIC LR Kinnojyukugo_07_0948"
    INDEX 01 22:05:05
  TRACK 949 AUDIO
    TITLE "TOEIC LR Kinnojyukugo_07_0949"
    INDEX 01 22:07:35
  TRACK 950 AUDIO
    TITLE "TOEIC LR Kinnojyukugo_07_0950"
    INDEX 01 22:07:63
  TRACK 951 AUDIO
    TITLE "TOEIC LR Kinnojyukugo_07_0951"
    INDEX 01 22:10:18
  TRACK 952 AUDIO
    TITLE "TOEIC LR Kinnojyukugo_07_0952"
    INDEX 01 22:11:19
  TRACK 953 AUDIO
    TITLE "TOEIC LR Kinnojyukugo_07_0953"
    INDEX 01 22:12:72
  TRACK 954 AUDIO
    TITLE "TOEIC LR Kinnojyukugo_07_0954"
    INDEX 01 22:13:34
  TRACK 955 AUDIO
    TITLE "TOEIC LR Kinnojyukugo_07_0955"
    INDEX 01 22:15:11
  TRACK 956 AUDIO
    TITLE "TOEIC LR Kinnojyukugo_07_0956"
    INDEX 01 22:15:52
  TRACK 957 AUDIO
    TITLE "TOEIC LR Kinnojyukugo_07_0957"
    INDEX 01 22:17:73
  TRACK 958 AUDIO
    TITLE "TOEIC LR Kinnojyukugo_07_0958"
    INDEX 01 22:18:37
  TRACK 959 AUDIO
    TITLE "TOEIC LR Kinnojyukugo_07_0959"
    INDEX 01 22:21:37
  TRACK 960 AUDIO
    TITLE "TOEIC LR Kinnojyukugo_07_0960"
    INDEX 01 22:21:63
  TRACK 961 AUDIO
    TITLE "TOEIC LR Kinnojyukugo_07_0961"
    INDEX 01 22:24:61
  TRACK 962 AUDIO
    TITLE "TOEIC LR Kinnojyukugo_07_0962"
    INDEX 01 22:25:63
  TRACK 963 AUDIO
    TITLE "TOEIC LR Kinnojyukugo_07_0963"
    INDEX 01 22:27:07
  TRACK 964 AUDIO
    TITLE "TOEIC LR Kinnojyukugo_07_0964"
    INDEX 01 22:27:46
  TRACK 965 AUDIO
    TITLE "TOEIC LR Kinnojyukugo_07_0965"
    INDEX 01 22:29:64
  TRACK 966 AUDIO
    TITLE "TOEIC LR Kinnojyukugo_07_0966"
    INDEX 01 22:30:31
  TRACK 967 AUDIO
    TITLE "TOEIC LR Kinnojyukugo_07_0967"
    INDEX 01 22:32:18
  TRACK 968 AUDIO
    TITLE "TOEIC LR Kinnojyukugo_07_0968"
    INDEX 01 22:32:55
  TRACK 969 AUDIO
    TITLE "TOEIC LR Kinnojyukugo_07_0969"
    INDEX 01 22:34:30
  TRACK 970 AUDIO
    TITLE "TOEIC LR Kinnojyukugo_07_0970"
    INDEX 01 22:34:54
  TRACK 971 AUDIO
    TITLE "TOEIC LR Kinnojyukugo_07_0971"
    INDEX 01 22:36:29
  TRACK 972 AUDIO
    TITLE "TOEIC LR Kinnojyukugo_07_0972"
    INDEX 01 22:37:33
  TRACK 973 AUDIO
    TITLE "TOEIC LR Kinnojyukugo_07_0973"
    INDEX 01 22:38:71
  TRACK 974 AUDIO
    TITLE "TOEIC LR Kinnojyukugo_07_0974"
    INDEX 01 22:39:35
  TRACK 975 AUDIO
    TITLE "TOEIC LR Kinnojyukugo_07_0975"
    INDEX 01 22:42:42
  TRACK 976 AUDIO
    TITLE "TOEIC LR Kinnojyukugo_07_0976"
    INDEX 01 22:43:06
  TRACK 977 AUDIO
    TITLE "TOEIC LR Kinnojyukugo_07_0977"
    INDEX 01 22:45:73
  TRACK 978 AUDIO
    TITLE "TOEIC LR Kinnojyukugo_07_0978"
    INDEX 01 22:46:35
  TRACK 979 AUDIO
    TITLE "TOEIC LR Kinnojyukugo_07_0979"
    INDEX 01 22:48:66
  TRACK 980 AUDIO
    TITLE "TOEIC LR Kinnojyukugo_07_0980"
    INDEX 01 22:49:18
  TRACK 981 AUDIO
    TITLE "TOEIC LR Kinnojyukugo_07_0981"
    INDEX 01 22:51:48
  TRACK 982 AUDIO
    TITLE "TOEIC LR Kinnojyukugo_07_0982"
    INDEX 01 22:52:50
  TRACK 983 AUDIO
    TITLE "TOEIC LR Kinnojyukugo_07_0983"
    INDEX 01 22:53:75
  TRACK 984 AUDIO
    TITLE "TOEIC LR Kinnojyukugo_07_0984"
    INDEX 01 22:54:37
  TRACK 985 AUDIO
    TITLE "TOEIC LR Kinnojyukugo_07_0985"
    INDEX 01 22:57:02
  TRACK 986 AUDIO
    TITLE "TOEIC LR Kinnojyukugo_07_0986"
    INDEX 01 22:57:39
  TRACK 987 AUDIO
    TITLE "TOEIC LR Kinnojyukugo_07_0987"
    INDEX 01 22:59:62
  TRACK 988 AUDIO
    TITLE "TOEIC LR Kinnojyukugo_07_0988"
    INDEX 01 23:00:26
  TRACK 989 AUDIO
    TITLE "TOEIC LR Kinnojyukugo_07_0989"
    INDEX 01 23:02:48
  TRACK 990 AUDIO
    TITLE "TOEIC LR Kinnojyukugo_07_0990"
    INDEX 01 23:03:01
  TRACK 991 AUDIO
    TITLE "TOEIC LR Kinnojyukugo_07_0991"
    INDEX 01 23:05:25
  TRACK 992 AUDIO
    TITLE "TOEIC LR Kinnojyukugo_07_0992"
    INDEX 01 23:06:26
  TRACK 993 AUDIO
    TITLE "TOEIC LR Kinnojyukugo_07_0993"
    INDEX 01 23:07:73
  TRACK 994 AUDIO
    TITLE "TOEIC LR Kinnojyukugo_07_0994"
    INDEX 01 23:08:39
  TRACK 995 AUDIO
    TITLE "TOEIC LR Kinnojyukugo_07_0995"
    INDEX 01 23:10:32
  TRACK 996 AUDIO
    TITLE "TOEIC LR Kinnojyukugo_07_0996"
    INDEX 01 23:10:69
  TRACK 997 AUDIO
    TITLE "TOEIC LR Kinnojyukugo_07_0997"
    INDEX 01 23:14:08
  TRACK 998 AUDIO
    TITLE "TOEIC LR Kinnojyukugo_07_0998"
    INDEX 01 23:14:49
  TRACK 999 AUDIO
    TITLE "TOEIC LR Kinnojyukugo_07_0999"
    INDEX 01 23:17:52
  TRACK 1000 AUDIO
    TITLE "TOEIC LR Kinnojyukugo_07_1000"
    INDEX 01 23:18:02
  TRACK 1001 AUDIO
    TITLE "TOEIC LR Kinnojyukugo_07_1001"
    INDEX 01 23:21:04
